<?xml version="1.0" encoding="UTF-8"?>
<svg width="24px" height="24px" viewBox="0 0 24 24" version="1.1" xmlns="http://www.w3.org/2000/svg" xmlns:xlink="http://www.w3.org/1999/xlink">
    <!-- Generator: Sketch 52.6 (67491) - http://www.bohemiancoding.com/sketch -->
    <title>Artboard</title>
    <desc>Created with Sketch.</desc>
    <g id="Artboard" stroke="none" stroke-width="1" fill="none" fill-rule="evenodd">
        <g id="play-icon">
            <polygon id="Path" points="0 0 24 0 24 24 0 24"></polygon>
            <path d="M9,18 L17,12 L9,6 L9,18 Z M12,2 C6.48,2 2,6.48 2,12 C2,17.52 6.48,22 12,22 C17.52,22 22,17.52 22,12 C22,6.48 17.52,2 12,2 Z M12,21 C7.03875,21 3,16.96125 3,12 C3,7.03875 7.03875,3 12,3 C16.96125,3 21,7.03875 21,12 C21,16.96125 16.96125,21 12,21 Z" id="Shape" fill="#4EB7F2" fill-rule="nonzero"></path>
        </g>
    </g>
</svg>