<svg xmlns="http://www.w3.org/2000/svg" width="37" height="37" viewBox="0 0 37 37"><g transform="translate(-276 -34)"><g transform="translate(84.562 9.58)" opacity="0.6"><path d="M209.938,61.42a18.5,18.5,0,1,1,18.5-18.5A18.5,18.5,0,0,1,209.938,61.42Zm0-35.724A17.224,17.224,0,1,0,227.162,42.92h0A17.244,17.244,0,0,0,209.938,25.7Z" fill="#053e81"/><path d="M198.878,40.634a.492.492,0,0,1-.359-.138.471.471,0,0,1-.143-.355.523.523,0,0,1,.079-.29.456.456,0,0,1,.246-.182l1.537-.552a.646.646,0,0,1,.188-.04.469.469,0,0,1,.354.144.507.507,0,0,1,.138.369v6.68a.486.486,0,0,1-.148.355.5.5,0,0,1-.365.148.473.473,0,0,1-.344-.148.482.482,0,0,1-.148-.355V40.26l-.719.305A.833.833,0,0,1,198.878,40.634Z" fill="#053e81"/><path d="M206.022,39.531a2.866,2.866,0,0,1,.808,1.33,7.818,7.818,0,0,1,0,4.118,2.869,2.869,0,0,1-.808,1.331,1.875,1.875,0,0,1-1.271.463,1.932,1.932,0,0,1-1.739-1.015,5.477,5.477,0,0,1-.616-2.838,5.473,5.473,0,0,1,.616-2.837,1.93,1.93,0,0,1,1.739-1.015A1.87,1.87,0,0,1,206.022,39.531Zm-2.271,1.335a5.214,5.214,0,0,0-.34,2.054,5.106,5.106,0,0,0,.345,2.054,1.029,1.029,0,0,0,2,0,6.3,6.3,0,0,0-.005-4.1,1.026,1.026,0,0,0-1.995,0Z" fill="#053e81"/><path d="M211.716,39.531a2.866,2.866,0,0,1,.808,1.33,7.818,7.818,0,0,1,0,4.118,2.869,2.869,0,0,1-.808,1.331,1.873,1.873,0,0,1-1.271.463,1.93,1.93,0,0,1-1.738-1.015,5.477,5.477,0,0,1-.616-2.838,5.473,5.473,0,0,1,.616-2.837,1.928,1.928,0,0,1,1.738-1.015A1.868,1.868,0,0,1,211.716,39.531Zm-2.27,1.335a5.212,5.212,0,0,0-.341,2.054,5.106,5.106,0,0,0,.345,2.054,1.029,1.029,0,0,0,2,0,6.312,6.312,0,0,0,0-4.1,1.026,1.026,0,0,0-1.995,0Z" fill="#053e81"/><path d="M216.505,39.348a2.036,2.036,0,0,1,.719.724,1.916,1.916,0,0,1,0,1.951,1.987,1.987,0,0,1-.714.72,1.891,1.891,0,0,1-.981.266,1.916,1.916,0,0,1-.985-.266,1.978,1.978,0,0,1-.719-.72,1.922,1.922,0,0,1,0-1.951,2.036,2.036,0,0,1,.719-.724,1.909,1.909,0,0,1,1.961,0Zm3.636-.271a.5.5,0,0,1,.365.148.494.494,0,0,1,.039.66l-5.232,6.73a.492.492,0,0,1-.375.158.48.48,0,0,1-.359-.148.489.489,0,0,1-.143-.355.474.474,0,0,1,.118-.335l5.183-6.66A.531.531,0,0,1,220.141,39.077Zm-5.3,1.291a.938.938,0,0,0-.281.68.921.921,0,0,0,.281.675.963.963,0,0,0,1.36,0,.96.96,0,1,0-1.36-1.355Zm5.661,2.745a1.99,1.99,0,0,1,.724.714,1.932,1.932,0,0,1,.005,1.965,2,2,0,0,1-.72.714,1.907,1.907,0,0,1-.985.267,1.879,1.879,0,0,1-.98-.267,2,2,0,0,1-.715-.714,1.938,1.938,0,0,1,0-1.96,2.008,2.008,0,0,1,.715-.715,1.888,1.888,0,0,1,.98-.266A1.928,1.928,0,0,1,220.506,43.113Zm-1.651,1.024a.955.955,0,0,0,.675,1.63.937.937,0,0,0,.68-.28.94.94,0,0,0,0-1.35.938.938,0,0,0-.68-.281A.921.921,0,0,0,218.855,44.137Z" fill="#053e81"/></g></g></svg>