<svg xmlns="http://www.w3.org/2000/svg" width="37.605" height="37.606" viewBox="0 0 37.605 37.606"><path d="M1123.327,82.754a3.74,3.74,0,1,0,3.74,3.74A3.745,3.745,0,0,0,1123.327,82.754Zm0,0a3.74,3.74,0,1,0,3.74,3.74A3.745,3.745,0,0,0,1123.327,82.754Zm6.23-6.1H1117.1a3.611,3.611,0,0,0-3.605,3.607v12.46a3.611,3.611,0,0,0,3.605,3.607h12.46a3.612,3.612,0,0,0,3.607-3.607V80.264A3.612,3.612,0,0,0,1129.557,76.657Zm-6.23,16.313a6.476,6.476,0,1,1,6.476-6.476A6.483,6.483,0,0,1,1123.327,92.97Zm6.684-11.614a1.532,1.532,0,1,1,1.532-1.532A1.534,1.534,0,0,1,1130.011,81.356Zm-6.684,1.4a3.74,3.74,0,1,0,3.74,3.74A3.745,3.745,0,0,0,1123.327,82.754Zm6.23-6.1H1117.1a3.611,3.611,0,0,0-3.605,3.607v12.46a3.611,3.611,0,0,0,3.605,3.607h12.46a3.612,3.612,0,0,0,3.607-3.607V80.264A3.612,3.612,0,0,0,1129.557,76.657Zm-6.23,16.313a6.476,6.476,0,1,1,6.476-6.476A6.483,6.483,0,0,1,1123.327,92.97Zm6.684-11.614a1.532,1.532,0,1,1,1.532-1.532A1.534,1.534,0,0,1,1130.011,81.356Zm-6.684,1.4a3.74,3.74,0,1,0,3.74,3.74A3.745,3.745,0,0,0,1123.327,82.754Zm-18.8-15.063V105.3h37.605V67.691ZM1135.9,92.724a6.35,6.35,0,0,1-6.343,6.343H1117.1a6.35,6.35,0,0,1-6.343-6.343V80.264a6.35,6.35,0,0,1,6.343-6.343h12.46a6.35,6.35,0,0,1,6.343,6.343v12.46Zm-6.343-16.067H1117.1a3.611,3.611,0,0,0-3.605,3.607v12.46a3.611,3.611,0,0,0,3.605,3.607h12.46a3.612,3.612,0,0,0,3.607-3.607V80.264A3.612,3.612,0,0,0,1129.557,76.657Zm-6.23,16.313a6.476,6.476,0,1,1,6.476-6.476A6.483,6.483,0,0,1,1123.327,92.97Zm6.684-11.614a1.532,1.532,0,1,1,1.532-1.532A1.534,1.534,0,0,1,1130.011,81.356Zm-6.684,1.4a3.74,3.74,0,1,0,3.74,3.74A3.745,3.745,0,0,0,1123.327,82.754Zm0,0a3.74,3.74,0,1,0,3.74,3.74A3.745,3.745,0,0,0,1123.327,82.754Zm0,0a3.74,3.74,0,1,0,3.74,3.74A3.745,3.745,0,0,0,1123.327,82.754Zm6.23-6.1H1117.1a3.611,3.611,0,0,0-3.605,3.607v12.46a3.611,3.611,0,0,0,3.605,3.607h12.46a3.612,3.612,0,0,0,3.607-3.607V80.264A3.612,3.612,0,0,0,1129.557,76.657Zm-6.23,16.313a6.476,6.476,0,1,1,6.476-6.476A6.483,6.483,0,0,1,1123.327,92.97Zm6.684-11.614a1.532,1.532,0,1,1,1.532-1.532A1.534,1.534,0,0,1,1130.011,81.356Zm-6.684,1.4a3.74,3.74,0,1,0,3.74,3.74A3.745,3.745,0,0,0,1123.327,82.754Zm0,0a3.74,3.74,0,1,0,3.74,3.74A3.745,3.745,0,0,0,1123.327,82.754Zm0,0a3.74,3.74,0,1,0,3.74,3.74A3.745,3.745,0,0,0,1123.327,82.754Zm6.23-6.1H1117.1a3.611,3.611,0,0,0-3.605,3.607v12.46a3.611,3.611,0,0,0,3.605,3.607h12.46a3.612,3.612,0,0,0,3.607-3.607V80.264A3.612,3.612,0,0,0,1129.557,76.657Zm-6.23,16.313a6.476,6.476,0,1,1,6.476-6.476A6.483,6.483,0,0,1,1123.327,92.97Zm6.684-11.614a1.532,1.532,0,1,1,1.532-1.532A1.534,1.534,0,0,1,1130.011,81.356Zm-6.684,1.4a3.74,3.74,0,1,0,3.74,3.74A3.745,3.745,0,0,0,1123.327,82.754Z" transform="translate(-1104.524 -67.691)" fill="#0e3981"/></svg>