<?xml version="1.0" encoding="UTF-8"?>
<svg width="170px" height="77px" viewBox="0 0 170 77" version="1.1" xmlns="http://www.w3.org/2000/svg" xmlns:xlink="http://www.w3.org/1999/xlink">
    <!-- Generator: Sketch 63 (92445) - https://sketch.com -->
    <title>Path 2</title>
    <desc>Created with Sketch.</desc>
    <g id="Symbols" stroke="none" stroke-width="1" fill="none" fill-rule="evenodd">
        <g id="Footer" transform="translate(-120.000000, -399.716255)" fill="#0A3C81" fill-rule="nonzero">
            <path d="M212.760283,400.325626 C215.662275,400.341435 218.759413,401.485325 220.809309,403.574238 C220.85298,403.618839 220.896666,403.663441 220.93939,403.708973 C224.214949,407.186176 224.895155,412.937214 222.40016,417.03513 C220.920836,419.465092 218.268782,420.862675 215.50894,421.26688 C213.573347,421.549351 211.606154,421.485249 209.652906,421.592106 C208.504362,421.656223 207.716368,422.045597 207.732176,423.275898 C207.758207,425.17339 207.732176,427.072727 207.732176,428.970234 C207.732176,432.769871 207.734037,436.568592 207.744276,440.36916 C207.745192,440.863529 207.641111,441.078175 207.091017,441.070048 C205.144255,441.041935 203.124098,441.041935 201.148542,441.067967 C200.553831,441.075382 200.345686,440.893269 200.346617,440.274372 C200.354994,432.633274 200.35684,424.992176 200.357771,417.350163 C200.358702,414.455586 200.360548,411.561939 200.359633,408.666447 C200.359633,407.181538 200.359633,405.695698 200.357771,404.209858 C200.35684,403.486897 200.355894,402.76302 200.354048,402.039143 C200.353132,401.465809 200.134764,400.66573 200.825178,400.399037 C201.063047,400.307041 201.324186,400.305195 201.578795,400.306 C205.300383,400.312611 209.021971,400.310764 212.743559,400.325626 L212.760283,400.325626 M207.732176,411.18375 C207.732176,412.58968 207.741468,413.99654 207.726606,415.402485 C207.721022,415.913548 207.884565,416.218327 208.442122,416.169087 C210.23274,416.012989 212.036421,416.443211 213.83354,415.790913 C214.894728,415.406193 215.640898,414.784519 216.072996,413.876682 C216.60916,412.753239 216.775496,411.554508 216.532972,410.236851 C216.343397,409.204487 216.121321,408.371891 215.390944,407.545796 C214.578779,406.627705 213.591932,406.326649 212.535414,406.227207 C211.22888,406.103611 209.90196,406.199329 208.583357,406.207676 C207.80374,406.21233 207.734984,406.287617 207.732176,407.095112 C207.729384,408.458302 207.732176,409.820545 207.732176,411.18375 M290.00012,441.101414 C289.548552,441.080036 289.066282,441.369953 288.670378,441.572514 C287.147398,442.354023 285.620634,443.123432 284.086485,443.880741 C277.498259,447.130268 270.817961,450.306416 263.887693,452.762394 C257.08386,455.17374 250.072783,456.936497 242.950163,458.104557 C237.273512,459.032856 231.222334,459.010548 225.509382,458.436268 C222.092573,458.093403 218.70088,457.480106 215.394651,456.549015 C212.038267,455.603062 208.915098,454.194325 205.709242,452.853443 C204.569075,452.375813 203.429808,451.898182 202.282209,451.439137 C201.14575,450.985676 199.976774,450.594471 198.80316,450.247883 C195.401228,449.243366 191.868269,448.756443 188.335341,448.523197 C184.840483,448.293705 181.367003,448.227726 177.886076,448.637501 C174.856764,448.996189 171.848845,449.535145 168.878996,450.233936 C162.069563,451.836857 155.468275,454.270527 149.162489,457.289631 C144.408522,459.565327 139.816252,462.169956 135.372648,465.003208 C132.426039,466.882115 129.544478,468.860447 126.716826,470.913136 C125.302504,471.93993 123.902144,472.98531 122.512938,474.046513 C121.819746,474.577107 121.122816,475.104893 120.439833,475.649448 C120.312529,475.750736 119.901808,475.98769 120.021666,476.199543 C120.175932,476.471806 120.856123,475.942158 121.044752,475.84087 C121.899656,475.382755 122.755476,474.927433 123.614088,474.47675 C125.363829,473.557728 127.123823,472.657307 128.894941,471.779194 C135.145918,468.682041 141.5502,465.869251 148.157057,463.615849 C153.590284,461.762959 159.191725,460.258503 164.853544,459.304188 C171.994734,458.099903 179.313398,457.944737 186.497297,458.859074 C188.530455,459.117405 190.556212,459.462162 192.541975,459.970448 C194.830687,460.555866 197.056196,461.355 199.25012,462.224796 C205.392363,464.659382 211.267912,467.393192 217.874785,468.306614 C221.272062,468.776829 224.691664,468.817707 228.122389,468.642079 C235.347181,468.271305 242.485563,466.733418 249.325651,464.407551 C252.799131,463.226505 256.201109,461.841953 259.530516,460.304966 C264.020628,458.220692 268.391722,455.903202 272.643889,453.371967 C275.701994,451.551579 278.688566,449.613194 281.59619,447.562382 C283.049467,446.536503 284.483305,445.482746 285.896635,444.402042 C286.602873,443.861225 287.304442,443.313923 287.99951,442.760105 C288.634153,442.254582 289.507658,441.737919 290.00012,441.101414 M136.242399,422.938572 C136.242399,417.237721 136.242399,411.5387 136.242399,405.83878 C136.242399,405.07497 136.203383,404.886341 137.021101,404.882603 C139.89987,404.866795 142.778639,404.741367 145.659254,404.779469 C149.071394,404.823139 152.734449,404.866795 155.891066,406.33408 C160.310515,408.387669 161.682081,414.916493 158.986372,418.828556 C158.343336,419.762455 157.521895,420.442646 156.568495,421.031788 C156.011869,421.37653 155.447828,422.03722 156.227461,422.494404 C157.98094,423.524922 159.29579,424.396565 160.093992,426.348866 C160.808607,428.093952 160.970259,430.036076 160.835539,431.903843 C160.701735,433.755802 160.274275,435.649586 159.166639,437.139149 C157.200377,439.783726 153.673903,440.585667 150.565626,440.80312 C146.168486,441.112568 141.775999,441.10329 137.371428,441.10329 C136.402235,441.10329 136.242399,440.492756 136.24333,439.642506 C136.24333,434.073597 136.24333,428.505619 136.242399,422.938572 M143.968992,430.124348 C143.968992,431.532139 143.972685,432.940876 143.967146,434.348652 C143.962492,435.484181 144.733748,435.401463 145.672285,435.428425 C147.725874,435.487888 150.116819,435.519489 151.676985,433.978809 C154.414518,431.275669 153.355192,425.878681 149.389219,425.16222 C148.210951,424.949436 147.012251,425.048863 145.822813,425.039555 C145.231825,425.034931 143.934599,424.76453 143.949461,425.702122 C143.972685,427.175892 143.958754,428.650578 143.968992,430.124348 M143.958754,414.916493 C143.955992,416.251804 143.955992,417.58617 143.958754,418.921482 C143.958754,419.10268 143.970839,419.308964 144.111158,419.422352 C144.219877,419.510624 144.370421,419.513416 144.508894,419.512486 L146.58293,419.505039 C148.0567,419.498539 149.654982,419.45023 150.800718,418.524723 C151.9093,417.629841 152.317228,416.103123 152.305174,414.678608 C152.297728,413.895252 152.181562,413.102604 151.858198,412.389881 C151.533903,411.677174 150.988432,411.0481 150.277571,410.719135 C149.587141,410.401341 148.800078,410.383671 148.039961,410.371601 C146.91931,410.353947 145.772627,410.265659 144.653822,410.318623 C143.690229,410.365101 143.9718,411.312931 143.968062,412.042347 C143.964354,412.807118 143.961561,413.570942 143.9597,414.335713 C143.9597,414.528996 143.958754,414.723194 143.958754,414.916493 M285.501707,428.303043 C285.231321,428.561375 285.055723,428.749073 284.861448,428.915409 C283.934111,429.706196 283.024382,430.522068 282.064512,431.271031 C281.109251,432.015354 280.123289,432.726185 279.107634,433.386891 C277.723997,434.288242 276.296721,435.123631 274.893583,435.995274 C274.047026,436.520268 273.243254,437.125218 272.360472,437.580525 C270.574461,438.502323 268.747618,439.343296 266.938383,440.22234 C264.542814,441.386677 261.997679,441.740711 259.386503,441.440571 C258.36154,441.322559 257.352385,440.911839 256.378599,440.527134 C255.164976,440.047642 254.302641,439.073811 253.521147,438.081394 C253.101164,437.549885 252.872526,436.853855 252.61331,436.209919 C251.846678,434.306828 251.984221,432.298771 252.00186,430.313908 C252.024168,427.786396 252.031614,425.255161 252.19235,422.73415 C252.250883,421.818852 251.428526,416.535221 260.418913,416.129139 C268.583159,416.535221 268.374998,420.744648 268.719725,422.145924 C269.294951,424.482975 268.962248,426.82465 269.113737,429.158878 C269.148069,429.701557 268.884214,429.762882 268.437254,429.760075 C265.180296,429.748005 261.922361,429.755451 258.665434,429.75359 C257.799376,429.752659 257.439756,430.107624 257.398863,430.979252 C257.339415,432.223499 257.568937,434.11356 258.216612,435.172886 C258.985045,436.430149 259.670836,436.918919 261.289549,437.053639 C262.298735,437.138218 263.04022,437.071323 264.527006,436.691258 C265.339201,436.598332 271.419157,434.514057 272.337248,434.178593 C273.149412,433.881245 273.932768,433.506764 274.732817,433.174107 C275.598875,432.812626 276.477018,432.476231 277.335569,432.098042 C278.136595,431.744007 278.919035,431.345371 279.712584,430.974598 C280.395536,430.655872 281.095305,430.367817 281.76898,430.028629 C282.903593,429.457172 284.021422,428.854099 285.148619,428.270512 C285.19412,428.246357 285.269407,428.278889 285.501707,428.303043 M260.768309,426.609974 C261.604582,426.609974 262.440916,426.608112 263.27722,426.61092 C263.66284,426.611851 263.973204,426.4706 263.911863,426.046864 C264.00541,423.446868 263.896076,421.886992 263.58386,421.367237 C263.354338,420.739079 262.351683,420.015202 261.16226,420.067234 C260.921599,420.077458 260.678129,420.069096 260.438383,420.047718 C259.661528,419.97617 258.164579,420.497486 257.849547,421.183262 C257.223265,422.548283 257.264158,424.49503 257.348692,425.99947 C257.436979,426.625767 257.811461,426.61092 258.589232,426.611851 C259.31494,426.611851 260.041624,426.611851 260.768309,426.609974 M232.760206,441.069813 C232.760206,434.760304 232.806654,438.796909 232.806654,416.545429 C232.619886,416.545429 231.798445,416.564961 231.612593,416.560307 C230.291243,416.524067 228.935469,416.399555 227.621534,416.506397 C226.715529,416.579823 226.461866,417.162434 226.452559,418.014546 C226.444166,418.91312 226.482283,419.815403 226.493422,420.713963 C226.517592,422.543644 226.529677,424.374256 226.530623,426.205753 C226.531538,427.578251 226.525984,428.951664 226.514814,430.324131 C226.504591,431.484745 226.617964,432.627705 225.958204,433.645207 C225.156263,434.882023 223.607222,435.77132 222.129759,435.8503 C220.257338,435.951588 219.798292,434.104267 219.677504,432.610981 C219.543064,430.939605 219.504342,428.429127 219.561338,425.079548 C219.558856,425.233163 219.601296,424.648665 219.688658,423.326054 C219.830824,423.328846 217.813459,424.415135 215.330534,424.71526 L213.75363,424.819325 C213.682066,424.803547 213.614241,424.859318 213.620741,424.931782 C213.658857,425.379673 213.773146,426.740086 213.774061,427.154499 C213.774992,427.910908 213.775908,428.667317 213.776869,429.42371 C213.776869,430.899326 213.777784,432.374012 213.783354,433.848728 C213.793577,436.360447 213.297377,439.240147 216.206801,440.828205 C216.997587,441.260304 217.896147,441.481449 218.796599,441.479614 C221.395643,441.474033 223.146315,439.886906 224.784559,438.112049 C225.052198,437.821201 225.895918,436.367893 226.379164,436.918919 C226.538954,437.101963 226.5464,437.367741 226.544539,437.609333 C226.538954,438.468891 226.5334,439.328434 226.527815,440.187962 C226.525984,440.452808 226.540815,440.753864 226.745253,440.922062 C226.904158,441.052158 227.126234,441.058674 227.331587,441.058674 C228.833235,441.057728 231.797499,441.069813 232.760206,441.069813 M252.162626,416.129139 C250.694426,415.962803 249.364683,416.425572 249.106352,416.545429 C247.542479,417.275807 246.93939,417.785969 245.684904,419.199345 C245.498137,419.471592 245.323454,419.768955 245.077177,419.97617 C244.886717,420.137852 244.588408,420.255863 244.347746,420.239155 C244.229734,420.230793 244.055021,419.880482 244.043882,419.67696 C243.994627,418.822056 243.964903,417.962513 243.998381,417.107624 C244.014158,416.689472 243.889647,416.545429 243.49658,416.547276 C242.044157,416.55286 240.590834,416.55286 239.138472,416.54636 C238.758436,416.544514 238.660841,416.72292 238.660841,417.078831 C238.668257,424.871357 238.669203,432.663014 238.658061,440.454655 C238.657118,440.972248 238.878279,441.075382 239.341047,441.067967 C240.880781,441.045643 242.422361,441.032658 243.962126,441.071659 C244.561491,441.086537 244.702726,440.882099 244.699919,440.312473 C244.681334,435.69141 244.738951,431.067524 244.660887,426.447376 C244.502928,424.577747 245.066038,423.934712 247.236723,423.843662 C247.674406,423.825077 248.715147,423.937504 248.630583,423.522144 C248.447538,422.617054 248.630583,418.568379 252.162626,416.129139 M165.497496,428.742573 L165.504957,428.742573 C165.504957,432.571034 165.516081,436.399479 165.493803,440.227924 C165.491011,440.857945 165.69264,441.082813 166.330122,441.068867 C167.892149,441.034504 169.455122,441.047505 171.017164,441.067021 C171.455763,441.071659 171.650908,440.955509 171.649977,440.476032 C171.6416,432.686237 171.643446,424.897389 171.652759,417.108555 C171.653685,416.718281 171.535688,416.543583 171.131468,416.545409 C169.437468,416.554722 167.742537,416.553822 166.048552,416.545409 C165.639677,416.543583 165.48358,416.669956 165.48541,417.126209 C165.505873,420.99741 165.497496,424.870472 165.497496,428.742573 M165.188978,409.015843 C164.934416,410.94492 166.756636,412.240299 168.318678,412.254231 C170.705885,412.277454 171.658339,411.088047 171.799574,409.071598 C171.938047,407.105335 170.198515,405.555378 168.491499,405.563691 C166.817961,405.57024 164.899077,407.102543 165.188978,409.015843 M194.397657,421.035496 C193.5502,418.927982 191.955641,417.333424 189.701292,416.572376 C188.314879,416.104969 186.833662,415.967457 185.371046,416.017628 C183.9261,416.065952 182.469999,416.300114 181.145826,416.879963 C175.693998,419.266224 176.292448,425.958592 176.44203,430.876103 C176.516371,433.335804 176.612089,435.944126 177.973433,437.994038 C179.178648,439.808842 181.253645,440.925785 183.396437,441.316059 C186.424818,441.868961 190.253264,441.459156 192.604216,439.307057 C192.89601,439.040363 193.163649,438.750431 193.407072,438.440067 C195.611235,435.629139 195.34268,431.862949 195.278578,428.504688 C195.239546,426.425083 195.29344,424.318501 194.800932,422.298329 C194.694059,421.860661 194.559355,421.438786 194.397657,421.035496 M185.907225,436.789753 C182.123365,436.789753 182.260923,432.999409 182.260923,428.61063 C182.260923,424.221867 182.260923,420.739079 185.907225,420.897053 C189.000654,421.029926 189.416029,424.468098 189.416029,428.855946 C189.416029,433.245655 189.416029,436.789753 185.907225,436.789753 M289.893278,413.495686 C289.893278,416.866032 287.24777,419.510624 283.805845,419.510624 C280.39929,419.510624 277.681242,416.866032 277.681242,413.495686 C277.681242,410.197834 280.39929,407.553242 283.805845,407.553242 C287.24777,407.553242 289.893278,410.197834 289.893278,413.495686 Z M279.203367,413.495686 C279.203367,416.141224 281.159422,418.243153 283.8421,418.243153 C286.450438,418.243153 288.370237,416.141224 288.370237,413.531941 C288.370237,410.886402 286.450438,408.749165 283.805845,408.749165 C281.159422,408.749165 279.203367,410.886402 279.203367,413.495686 Z M282.863646,416.611408 L281.486509,416.611408 L281.486509,410.668964 C282.029142,410.560246 282.791166,410.487736 283.769651,410.487736 C284.893065,410.487736 285.399504,410.668964 285.834349,410.923542 C286.160551,411.176304 286.414244,411.647434 286.414244,412.227268 C286.414244,412.879612 285.906859,413.386967 285.182066,413.604389 L285.182066,413.676884 C285.7619,413.894337 286.088041,414.328266 286.269255,415.126484 C286.450438,416.03249 286.559172,416.393971 286.7041,416.611408 L285.21829,416.611408 C285.037108,416.393971 284.929289,415.851292 284.747191,415.162724 C284.638456,414.51041 284.27603,414.219547 283.515013,414.219547 L282.863646,414.219547 L282.863646,416.611408 Z M282.898924,413.241993 L283.551237,413.241993 C284.312285,413.241993 284.929289,412.988331 284.929289,412.372242 C284.929289,411.828648 284.529722,411.466236 283.659971,411.466236 C283.297575,411.466236 283.043882,411.502476 282.898924,411.5387 L282.898924,413.241993 Z" id="Path-2"></path>
        </g>
    </g>
</svg>