<?xml version="1.0" encoding="utf-8"?>
<!-- Generator: Adobe Illustrator 24.0.0, SVG Export Plug-In . SVG Version: 6.00 Build 0)  -->
<svg version="1.1" id="Layer_1" xmlns="http://www.w3.org/2000/svg" xmlns:xlink="http://www.w3.org/1999/xlink" x="0px" y="0px"
	 viewBox="0 0 1000 1000" style="enable-background:new 0 0 1000 1000;" xml:space="preserve">
<style type="text/css">
	.st0{fill:#FFFFFF;}
	.st1{fill:#373449;}
</style>
<path class="st0" d="M848.5,806.7c-69.4,6.5-341.4-11-338.3-108.9c3.2-101.9,163-105.7,337.1-119.7c7.8-0.6,14.6-5.3,18.1-12.3
	c28.1-55.4,8.6-111.1-2.1-134.5c-3.2-6.8-10.1-11.2-17.7-11.1c-59.1,0.7-319.3-2-335.4-106.1c-4.7-111.9,239.6-121.5,335.9-120.9
	c10.8,0.1,20.6-6.3,24.8-16.2c9.6-23.7,5.1-41.1-1.3-52.1c-5-8.8-13.3-15-22.9-18.1C677.8,53.3,531.8,26.1,406.4,42.3
	c-45.6,5.9-89.5,21.1-128,46.3C188.9,147.1,180.7,210,161,275.8c0,0-82.3,27.1-105.4,89.4c-9.7,26.4-8.6,56.8,2.6,82.6
	C97.3,538,183.5,553,254,558.9c79.2,6.6,115.6-9.8,189.8-52.7l0.1,0.1c-66.3,100.5-203.3,90.6-284.2,65.8c0,0-9.9,9.9,1.6,160.4
	C206,934.1,363.1,963.9,520.1,962.3c155.3-16.2,220.4-37.1,334.5-73.6c5.2-1.7,9.6-5.4,12.1-10.4c12.3-24.5,7.7-40-2.8-62.7
	C861.2,809.6,855,806.1,848.5,806.7z"/>
<circle class="st1" cx="368.5" cy="194.7" r="23.9"/>
</svg>
