<?xml version="1.0" encoding="UTF-8"?>
<svg width="164px" height="270px" viewBox="0 0 164 270" version="1.1" xmlns="http://www.w3.org/2000/svg" xmlns:xlink="http://www.w3.org/1999/xlink">
    <!-- Generator: Sketch 55.2 (78181) - https://sketchapp.com -->
    <title>pluses</title>
    <desc>Created with Sketch.</desc>
    <defs>
        <polygon id="path-1" points="0 0 164 0 164 279 0 279"></polygon>
    </defs>
    <g id="Page-1" stroke="none" stroke-width="1" fill="none" fill-rule="evenodd">
        <g id="Culture_1.1" transform="translate(-1138.000000, -339.000000)">
            <g id="pluses" transform="translate(1138.000000, 330.000000)">
                <mask id="mask-2" fill="white">
                    <use xlink:href="#path-1"></use>
                </mask>
                <g id="Clip-2"></g>
                <path d="M101.751554,61.3636261 C101.352541,61.4330628 100.987235,61.6852276 100.594598,61.8213601 C100.170078,61.9684563 99.7300702,62.0744386 99.1971418,62.2279302 C99.1488594,61.1827252 99.1379276,60.2974073 99.0568496,59.4193985 C98.9839705,58.6309265 98.699742,57.9868098 97.6630369,58.0763466 C97.4225359,59.4340168 96.6973889,60.6774819 97.0289888,62.154839 C97.2366942,63.0821844 96.7602472,63.7180783 95.8228398,64.0579527 C94.8972753,64.3932589 93.9953965,64.8162746 93.1263134,65.2822313 C92.6617091,65.5316553 92.2891148,65.9510164 91.7443435,66.4041822 C93.8059109,67.7929162 95.2379851,66.2844953 96.9187592,65.7107289 C97.1547053,67.7865207 97.1146217,69.8714489 98.5867794,71.6347756 C99.0094782,71.3954017 99.3838945,71.1843507 99.6116417,71.0555274 C99.4349099,69.3552419 99.343811,67.8459074 99.105132,66.3594138 C98.861898,64.8418565 99.6735889,64.046989 100.834188,63.411095 C100.969926,63.3370901 101.142103,63.3242992 101.269641,63.2420715 C101.659544,62.9871657 102.087709,62.7614965 102.399267,62.4289312 C102.606061,62.2078301 102.639768,61.8222737 102.749998,61.5107222 C102.415665,61.4549902 102.066756,61.3088076 101.751554,61.3636261 L101.751554,61.3636261 Z M134.010574,187.26972 C132.770718,187.631522 131.54726,188.050883 130.003135,188.549731 C129.942098,187.009332 130.010423,185.654403 129.801806,184.343328 C129.604122,183.106259 129.89746,181.650829 128.706798,180.656788 C127.619077,181.893858 127.660072,183.279851 127.716553,184.675894 C127.772123,186.033564 127.785788,187.393061 127.863222,188.750732 C127.896018,189.343684 127.706532,189.700004 127.189091,190.020692 C126.546844,190.420867 125.991141,190.962656 125.449102,191.401203 C125.900042,193.003729 126.964987,192.316672 127.872332,192.268249 C128.012624,193.014693 128.107367,193.733728 128.291387,194.429009 C128.491804,195.181849 128.729572,195.931948 129.037487,196.645501 C129.238815,197.112372 129.679734,197.341696 130.21084,197.15714 C130.777475,196.95888 130.820291,196.52216 130.690931,196.006867 C130.549728,195.454114 130.430388,194.894052 130.315604,194.334904 C129.810916,191.865333 129.901104,191.559263 131.717615,190.087388 C132.029173,189.833396 132.450961,189.721932 132.803514,189.514535 C133.425719,189.145424 134.065233,188.793673 134.631868,188.350557 C134.868725,188.166001 135.113781,187.722886 135.051834,187.473462 C134.896966,186.858582 134.360393,187.167392 134.010574,187.26972 L134.010574,187.26972 Z M152.07639,31.9992117 C152.437142,33.6063058 152.796071,35.2097454 153.155001,36.8113576 C153.668798,36.6423341 154.205371,36.5491427 154.747409,36.5491427 C154.900455,36.5491427 155.051679,36.5573655 155.201081,36.5701565 C155.156443,36.2531231 155.109071,35.9370034 155.057145,35.6217973 C154.813,34.1426129 154.511463,32.6734786 154.229056,31.1714531 C154.663598,30.9731931 154.933251,30.8251833 155.219301,30.7246828 C157.008483,30.096098 158.584493,29.0846976 160.104022,27.9801059 C160.427423,27.7453002 160.838279,27.4629852 160.291686,26.9403827 C158.19459,27.6767772 156.18586,28.8078645 153.730746,29.0554611 C153.61505,28.1034474 153.501176,27.2345751 153.404612,26.3638754 C153.282539,25.2592837 152.892636,24.6215624 152.302315,24.7467312 C151.441431,24.9294594 151.445075,25.6420992 151.462384,26.3593072 C151.491535,27.5351629 151.470583,28.7128458 151.470583,29.872256 C148.632853,30.5383001 148.632853,30.5383001 148.093548,31.1559212 C149.147562,32.6049555 150.743614,31.5862461 152.07639,31.9992117 L152.07639,31.9992117 Z M15.4781942,130.631301 C14.6737912,131.114617 13.8630113,131.591538 13.0249017,132.009071 C12.4446019,132.298696 11.8132868,132.484165 11.2184112,132.710748 C10.4522697,131.464542 11.3514155,129.83552 9.58409753,128.846961 C9.37912508,129.500214 9.14955593,129.999975 9.07576585,130.522578 C8.99650984,131.086294 9.08487574,131.672852 9.06210102,132.247532 C9.01381862,133.456278 8.77878354,133.780621 7.60725212,134.136027 C6.36101962,134.514274 5.1002113,134.841358 3.8457799,135.191282 C2.84004841,135.469943 1.83978286,135.768703 0.827674446,136.020868 C0.310232882,136.149691 -0.062361483,136.424697 0.00869563314,136.95735 C0.0879516473,137.549389 0.561665755,137.82074 1.13832158,137.846322 C1.34056107,137.855459 1.54917747,137.779627 1.75141696,137.728463 C3.06688459,137.403207 4.38599618,137.093482 5.69417591,136.73899 C6.67348873,136.474034 7.63549276,136.148778 8.63940228,135.840881 C8.95460436,139.526508 8.81522309,140.209911 10.2764489,141.466167 C10.7592729,141.298057 11.2876463,141.115329 11.6775495,140.981024 C11.5062836,139.171101 11.3842111,137.474471 11.1701288,135.789717 C11.0671871,134.983886 11.3350177,134.552647 12.0291911,134.161609 C13.6507509,133.247968 15.2121855,132.229259 16.5221872,130.889862 C16.2498016,130.343504 15.9136468,130.37 15.4781942,130.631301 L15.4781942,130.631301 Z M86.4560543,211.663015 C84.6012814,212.135367 82.7492414,212.583051 80.6995169,212.448746 C80.6366587,211.587183 80.5710675,210.815156 80.5273401,210.041302 C80.4836126,209.245521 80.6257269,208.373908 79.7147382,207.990179 C78.2079629,209.388963 78.6525254,211.218072 78.5040342,212.900998 C77.1657919,213.2427 75.8986067,213.517706 74.663306,213.895953 C73.5081724,214.250446 72.9879979,214.786753 73.2357868,215.243573 C73.6448207,216.000068 74.3581248,215.827389 75.0386333,215.738766 C76.1992329,215.586188 77.3625654,215.461933 78.5650705,215.321232 C78.6552584,215.908704 78.7080957,216.320755 78.7837078,216.727326 C79.0305857,218.061241 79.2282702,219.407948 79.5562262,220.722677 C79.80857,221.733163 80.1474578,222.777455 81.5184957,222.836841 C82.0322934,222.388244 82.22269,221.936905 81.8810692,221.210561 C80.9755465,219.281865 80.9609707,217.189628 80.8808037,215.006026 C83.2821698,213.95534 86.2128204,214.257755 88.1532262,212.178308 C87.8052285,211.095644 87.0645948,211.50861 86.4560543,211.663015 L86.4560543,211.663015 Z M119.524032,110.237012 C119.688921,110.882042 120.041474,111.078475 120.714694,110.911279 C121.006211,109.851455 120.989813,108.805337 120.71105,107.719018 C120.146237,105.51623 119.65157,103.296083 119.105888,100.990054 C120.248268,100.531406 121.272219,100.033472 122.349008,99.7100429 C123.538759,99.3518957 124.782259,99.1801313 125.987497,98.8694934 C126.350981,98.7753884 126.664361,98.4885052 126.998694,98.2911588 C126.650696,97.6296829 126.278102,97.4168046 125.648609,97.5501961 C123.727334,97.9585935 121.785106,98.270145 119.869297,98.6986426 C118.735116,98.9526347 118.493704,98.8758889 118.341569,97.6799331 C118.170303,96.332313 118.034566,94.979211 117.933446,93.6251954 C117.878786,92.8970237 117.543543,92.5955222 116.658973,92.639377 C116.393875,94.8330285 115.957511,97.0102344 116.792888,99.1965768 C116.387498,99.4304688 116.133332,99.6068015 115.855481,99.7328839 C115.001884,100.117527 114.108204,100.426337 113.289226,100.872194 C112.504864,101.298864 112.287138,101.903694 112.632403,102.383356 C113.053279,102.97174 113.541569,102.630952 114.025304,102.441829 C114.988219,102.063582 115.961155,101.710916 117.07074,101.294296 C117.259314,101.809589 117.389586,102.092818 117.467931,102.389751 C118.161193,105.004591 118.855366,107.617604 119.524032,110.237012 L119.524032,110.237012 Z M91.6104282,-66.0024657 C93.1928155,-66.5853685 94.842616,-66.9873704 96.4268253,-67.4569818 C96.5598297,-67.166444 96.6308868,-67.0750799 96.6418186,-66.9773204 C96.8595449,-64.9554334 97.0781822,-62.9326327 97.2776887,-60.9080047 C97.3232382,-60.4429616 97.4607974,-60.0701962 97.9673071,-60.0126368 C98.5220992,-59.9477683 98.862809,-60.2236878 98.9302222,-60.7883178 C98.9976353,-61.3547751 99.1105979,-61.9258006 99.0914672,-62.4913442 C99.0495617,-63.7859732 98.9329551,-65.0778612 98.8582541,-66.3715766 C98.7534904,-68.1860671 98.9575518,-68.4236137 100.69754,-68.7625745 C101.872716,-68.9918983 103.03787,-69.2760406 104.206669,-69.5400827 C104.762372,-69.6661652 105.308965,-69.8096068 105.558576,-70.6656882 C103.204581,-71.1745861 101.007276,-70.2381043 98.7534904,-70.2582044 C97.7249842,-71.6652112 98.5521619,-73.9940815 96.5088143,-75 C96.2674023,-74.6180982 95.9549332,-74.3531423 95.966776,-74.1037184 C96.0378331,-72.6062612 96.1826803,-71.1106312 96.3074858,-69.5519601 C93.9298054,-68.3614862 90.8770823,-68.7278561 88.9348545,-66.3167581 C90.016198,-65.4533676 90.3168243,-65.5273725 91.6104282,-66.0024657 L91.6104282,-66.0024657 Z M143.885691,63.9227339 C142.649479,63.9062883 141.416001,63.6751372 140.177967,63.5737231 C139.424579,63.5125092 138.664815,63.5189047 137.98795,63.4978909 C137.806664,62.3412217 137.649974,61.343526 137.460488,60.132952 C136.289867,60.7688459 136.289867,60.7688459 136.276203,61.5171177 C136.240674,63.540832 136.019304,63.731783 134.109872,63.8067015 C132.774362,63.858779 131.479847,64.1621078 130.255479,64.7788153 C131.013421,66.0250213 131.396036,66.1766857 132.870016,65.9683756 C133.916742,65.8203658 134.968023,65.7089016 136.122246,65.5682009 C136.128622,66.6517789 136.079429,67.5900879 136.149575,68.5192606 C136.256161,69.9198719 136.383699,71.3204832 136.523081,72.7201809 C137.171704,72.7201809 137.782978,72.8352996 138.345058,73.0445233 C138.317728,72.6653624 138.286755,72.2852879 138.274912,71.9061269 C138.222074,70.1930505 138.194745,68.479974 138.148284,66.7678112 C138.123688,65.883407 138.572805,65.6422058 139.410004,65.5928692 C141.83961,65.4503412 144.26284,65.1862991 146.692447,65.023671 C146.777169,65.0172755 146.86098,65.01088 146.94388,65.0035709 C146.81452,64.5906053 146.727976,64.1593668 146.690625,63.7144238 C145.75504,63.7984787 144.819454,63.9336976 143.885691,63.9227339 L143.885691,63.9227339 Z M28.9435177,196.381459 C28.8679057,196.153049 28.7822727,196.012348 28.7795398,195.870734 C28.758587,194.357745 28.7330793,192.84567 28.7431002,191.333594 C28.7494771,190.467463 28.6929958,189.662545 27.4103238,189.107051 C27.1698228,189.901919 26.8373119,190.558827 26.7935845,191.234921 C26.6778889,192.988197 26.6505592,194.749697 26.66969,196.507542 C26.6787999,197.264036 26.5658373,197.786639 25.788764,198.119204 C24.7866764,198.545874 23.8119185,199.058427 22.8717782,199.613007 C21.7603721,200.269001 21.4223953,200.893017 21.769482,201.391865 C22.1001708,201.866958 22.9191497,201.828586 23.9185042,201.334306 C24.8896181,200.854645 25.8762189,200.407874 27.0067558,199.876135 C27.3556645,201.252078 27.7555885,202.48458 27.957828,203.748145 C28.0917433,204.58504 28.4606937,205.044601 29.2049715,205.334225 C29.7880042,204.797004 29.969291,204.289934 29.7634075,203.504203 C29.487378,202.45443 29.487378,201.333392 29.2842275,200.259864 C29.0901869,199.232019 29.4245197,198.629016 30.3610161,198.136563 C31.8696133,197.344437 33.3062425,196.413437 34.7592694,195.518982 C35.2375384,195.223876 35.7495141,194.894966 35.4279351,194.077257 C33.0320349,194.132989 31.2674498,196.068994 28.9435177,196.381459 L28.9435177,196.381459 Z M163.876426,141.349221 L155.636534,141.349221 C155.381457,139.883741 155.171019,138.605558 154.929607,137.332856 C154.853084,136.926286 154.724634,136.522457 154.569766,136.137814 C154.387568,135.685562 154.120649,135.27351 153.530328,135.40142 C152.89628,135.539379 152.733213,136.015386 152.778762,136.592807 C152.794249,136.797463 152.883526,136.995723 152.911767,137.201292 C153.10854,138.630226 153.298937,140.060074 153.492066,141.496317 C152.406168,141.859033 151.468761,142.137693 150.561416,142.496754 C150.317271,142.592686 150.023022,142.92251 150.013912,143.154575 C150.003891,143.394863 150.262612,143.730169 150.496736,143.873611 C150.724483,144.01157 151.077036,144.019793 151.359442,143.978679 C152.273164,143.844374 153.179597,143.662559 154.126115,143.492622 C154.716435,145.373809 155.249364,147.203831 155.477111,149.069486 C156.087473,148.950712 156.70148,148.850212 157.320041,148.761589 C157.315486,148.595306 157.308198,148.42811 157.296355,148.261827 C157.184304,146.777161 156.83995,145.311681 156.580318,143.740219 C157.145131,143.592209 157.686258,143.264212 158.126266,143.367454 C159.88994,143.784074 161.489636,142.853074 163.201384,142.868606 C163.986656,142.875001 164.150634,142.403563 163.876426,141.349221 L163.876426,141.349221 Z M79.7775964,124.131661 C81.1103728,123.759809 82.4832327,123.53414 83.9626783,123.220761 C84.1676508,124.08141 84.3462046,124.722786 84.471921,125.374212 C84.7242649,126.682546 84.9602109,127.994534 85.2098218,129.303781 C85.4475899,129.268149 85.6871799,129.248963 85.9276809,129.248963 C86.4396565,129.248963 86.9288574,129.322054 87.3879957,129.453618 C87.0272442,127.710392 86.6182103,125.976301 86.2574588,124.233075 C86.1772918,123.84295 86.2456159,123.423589 86.2456159,122.917432 C87.0928354,122.647908 87.9090813,122.342752 88.7499238,122.134442 C89.6053422,121.922477 90.4899122,121.8302 91.3507964,121.639249 C91.9347402,121.510425 92.5314378,121.340488 92.8047344,120.496284 C90.420677,120.183819 88.1541372,120.666221 85.7545931,120.539225 C85.5104481,119.355147 85.3100306,118.181118 85.0176032,117.029931 C84.6668726,115.646679 84.1676508,115.518769 82.9897424,116.446115 C83.2347984,117.919817 83.4798544,119.40357 83.7677268,121.13766 C82.2973911,121.481189 80.9728135,121.741576 79.6792096,122.110687 C78.8201473,122.356457 77.8617872,122.580299 77.6176423,123.65474 C78.2598893,124.452349 78.9549736,124.360985 79.7775964,124.131661 L79.7775964,124.131661 Z M127.545287,148.355932 C127.232818,147.315295 126.850203,146.292931 126.504027,145.261431 C126.296322,144.641982 126.07313,144.028929 125.826252,143.32634 C126.928548,143.016615 127.876887,142.748005 128.826137,142.483963 C130.176223,142.10937 131.535418,141.764928 132.870927,141.343739 C133.146046,141.256943 133.33462,140.895142 133.751853,140.466644 C132.330711,140.046369 131.152802,140.071951 130.029553,140.419135 C128.311429,140.94996 126.591482,140.967319 124.868803,140.82205 C123.887668,139.052328 123.766506,136.940904 122.210538,135.358479 C121.322324,136.622044 121.341454,136.615648 121.708583,137.726635 C122.066601,138.805645 122.379981,139.89836 122.766241,141.160097 C120.885049,141.51459 118.850811,141.272475 117.346769,142.795514 C117.959864,143.545613 118.562939,143.899192 119.542252,143.694537 C120.605376,143.473436 121.718604,143.496277 122.808146,143.399431 C123.411221,143.344613 123.782904,143.556577 123.975123,144.168716 C124.458858,145.707288 125.292412,147.132567 125.785257,148.669311 C126.367379,148.545969 126.954967,148.441814 127.545287,148.355932 L127.545287,148.355932 Z M101.201317,169.105628 C99.2344924,169.49758 97.2713118,169.905063 95.2215873,170.327165 C94.280536,168.278783 94.1110921,165.947172 92.7090805,164.176536 C91.6641765,164.445146 91.4127437,165.087436 91.6359359,165.985544 C91.711548,166.288873 91.8518402,166.577584 91.9055885,166.88274 C92.1287808,168.136255 92.9304508,169.268256 92.7610069,170.660644 C90.2321024,171.359579 87.4171474,170.852509 85.2107328,172.677049 C86.6537389,173.792605 86.6482729,173.763368 88.2251943,173.484708 C89.9032355,173.187775 91.5922084,172.952055 93.3859451,172.672481 C93.5335253,173.344921 93.6792835,173.83646 93.7448747,174.337135 C93.9288944,175.732264 94.1001602,177.128307 94.2349866,178.528005 C94.3142426,179.358504 94.5766073,179.924962 95.6260663,179.838166 C96.1580836,177.438032 96.0123255,175.070788 95.6005586,172.568326 C96.5516308,172.236675 97.4270909,171.95436 98.2852422,171.626363 C99.1534144,171.292884 100.023409,170.953009 100.856052,170.541871 C101.330677,170.307979 101.685963,169.903236 101.47097,169.291097 C101.367117,169.216178 101.270552,169.091009 101.201317,169.105628 L101.201317,169.105628 Z M41.6855162,35.3842507 C41.9852315,35.2928867 42.2831248,35.1987817 42.583751,35.1119858 C43.5612419,34.8269299 44.5387327,34.5437012 45.7293949,34.1992587 C45.8633103,35.716816 45.9726289,37.0525588 46.1019893,38.3864743 C46.1356959,38.738226 46.1739574,39.0899777 46.2103969,39.4417294 C46.5010023,39.3887382 46.7943407,39.3595017 47.090412,39.3595017 C47.4985349,39.3595017 47.892082,39.4070111 48.2683203,39.4928933 C48.1025204,37.527652 47.9303435,35.564238 47.7581667,33.5843784 C48.5716796,33.2189221 49.26312,32.8735659 49.980979,32.5939918 C51.7701608,31.8968839 53.5775623,31.248199 55.3594561,30.5346455 C55.688323,30.4030813 55.930646,30.0586387 56.4836162,29.57715 C53.1138691,29.1678389 50.4802008,31.2655581 47.6698008,30.9795886 C46.6467605,29.0956613 47.1860658,26.8755142 45.6965993,24.9148411 C45.1044567,26.8883052 45.083504,28.4816947 45.4652082,30.0823933 C45.8378026,31.6465463 45.6055005,32.0037799 44.0841494,32.3655816 C43.0319575,32.6159192 41.9870535,32.9119388 40.9603692,33.2518132 C39.9500828,33.588033 39.3324325,34.305241 39.4891225,34.8333254 C39.6558335,35.3943008 40.7553968,35.6702203 41.6855162,35.3842507 L41.6855162,35.3842507 Z M47.974071,105.283252 C46.5975671,104.357734 45.5317104,105.436743 44.4029954,105.75469 C43.1749827,106.100046 42.0162051,106.69574 40.5021419,106.864764 C40.2006047,104.465543 39.854429,102.207023 39.6540115,99.9357122 C39.5401379,98.6456514 39.1966952,97.883675 38.4360196,97.9448889 C37.8147254,97.9951392 37.4567068,98.7370155 37.4958793,100.006976 C37.521387,100.843871 37.5724024,101.682593 37.6753441,102.513093 C37.8876045,104.217946 38.1426813,105.919146 38.3840933,107.649581 C36.7260939,108.592458 34.468664,108.498353 33.4328699,110.533031 C34.3393036,111.481391 35.2375384,110.951479 36.0893128,110.697487 C36.962951,110.436186 37.8092594,110.082607 38.732091,109.746387 C38.9006239,110.320153 39.0208744,110.71576 39.134748,111.11228 C39.4781907,112.316458 39.8034136,113.524291 40.1659871,114.721161 C40.3782475,115.419182 41.137101,115.993862 41.6299459,115.820271 C42.4671445,115.523337 42.0435348,114.913025 41.940593,114.378545 C41.6053492,112.649937 41.2828592,110.917674 40.9403275,109.106838 C42.263083,108.595199 43.552132,108.186802 44.760103,107.605726 C45.9407443,107.037442 47.2762537,106.611685 47.974071,105.283252 L47.974071,105.283252 Z M69.520775,66.6910654 C70.9564931,66.4507779 72.3512168,66.2918044 73.7076789,65.9711165 C75.0313454,65.6577377 76.5007702,65.9263481 77.8563213,65.0191028 C77.5839357,64.7742471 77.4099369,64.4873639 77.2459589,64.4919321 C75.070518,64.5595415 72.8905221,64.6006553 70.724191,64.7906926 C69.3048707,64.9158614 69.0561708,64.8117063 68.9632499,63.4046996 C68.8584862,61.814051 68.7537225,60.2234024 68.636205,58.6327538 C67.9839371,58.6208765 67.3699307,58.4920531 66.8069397,58.2691248 C66.8069397,58.2755203 66.8069397,58.2828294 66.8069397,58.2901385 C66.8707089,60.5669313 66.9800276,62.8428105 67.0592836,65.1196033 C67.0620166,65.2027446 66.9545199,65.2913678 67.0146452,65.1981764 C65.6190105,65.8194521 64.3818879,66.3484501 63.165718,66.9222165 C62.7967676,67.0958083 62.3959326,67.3315276 62.1763843,67.6540428 C62.0078514,67.9007258 61.9714119,68.4105373 62.120814,68.6480839 C62.2355986,68.8298985 62.768527,68.8856305 63.0518445,68.7960938 C63.7915672,68.5603744 64.4939395,68.2067955 65.2163535,67.9135168 C65.9333016,67.6211517 66.6493387,67.2849319 67.50749,67.6174972 C68.0067118,70.0121496 68.5369072,72.4040612 68.9987785,74.8087637 C69.2237927,74.7776999 69.4515398,74.7585134 69.679287,74.7585134 C70.1138286,74.7585134 70.5319724,74.8124182 70.9300745,74.9083505 C70.3716384,72.4643615 69.9771803,69.9819995 69.5262409,67.5124285 C69.4825135,67.2703137 69.520775,67.0135806 69.520775,66.6910654 L69.520775,66.6910654 Z M152.460827,-14.6394088 C152.406168,-15.0030378 152.346954,-15.3657532 152.284096,-15.7284686 C151.962517,-15.5630996 151.641848,-15.3940761 151.310249,-15.2515481 C149.207687,-14.3534392 147.106947,-13.4407121 144.598995,-12.9738417 C144.473279,-13.6462813 144.342096,-14.1423882 144.294725,-14.6458043 C144.119815,-16.4986678 143.956748,-18.3515312 143.794592,-20.2043947 C143.063068,-20.2528177 142.329722,-20.3323044 141.596376,-20.4282367 C141.632816,-19.9631936 141.66379,-19.4972368 141.702962,-19.0321936 C141.886071,-16.9116334 142.070091,-14.7901595 142.269597,-12.4832166 C140.778309,-12.2584609 139.461019,-12.0126916 138.131887,-11.8747318 C137.076962,-11.7660086 136.249784,-11.4425797 135.818886,-10.2411421 C136.786356,-9.72950328 137.722853,-9.69478493 138.720385,-9.85832663 C140.040408,-10.0748595 141.371362,-10.2246966 142.745133,-10.4083384 C142.853541,-9.97253173 142.928242,-9.72858964 142.974702,-9.47733843 C143.145057,-8.55547489 143.275329,-7.62447494 143.493055,-6.71357509 C143.551358,-6.47054665 143.847429,-6.15534058 144.074266,-6.11788131 C144.309301,-6.0795084 144.731088,-6.27411388 144.825831,-6.4805967 C145.03627,-6.93467616 145.193871,-7.46184689 145.186583,-7.95704018 C145.173829,-8.83504896 145.022605,-9.71123046 144.909642,-10.7683128 C145.715867,-11.0232186 146.492941,-11.256197 147.262726,-11.5129301 C149.106567,-12.1268967 150.919434,-12.7965954 152.543727,-13.8445413 C152.51822,-14.1094971 152.49089,-14.3735393 152.460827,-14.6394088 L152.460827,-14.6394088 Z M26.4884033,73.1066509 C24.5270447,73.4072387 22.5656861,73.7050856 20.6034165,73.996537 C19.6423234,74.139065 18.6739425,74.2861611 17.5661802,74.0001916 C17.5188088,71.621071 17.4741704,69.2775824 17.424977,66.9340939 C17.4158671,66.5266101 17.4377308,66.1118172 17.3985583,65.7098152 C16.6032652,65.6860606 15.8070611,65.6760105 15.010857,65.6741832 C15.0800922,68.5421016 15.1493273,71.422811 15.2176515,74.2450473 C14.1909672,74.6689766 12.9438237,74.3839207 12.7087887,75.9864466 C13.5122807,76.2568843 14.3194166,76.5291492 15.2240284,76.8333916 C15.25318,77.3395486 15.2987294,77.9041786 15.3169492,78.4706359 C15.3606767,79.8264788 15.3515668,81.1850626 15.4399327,82.5390782 C15.5191887,83.747825 15.8535215,84.2110409 16.5021455,84.1352087 C17.4714374,84.0219172 17.3548309,83.1512176 17.4067572,82.5454737 C17.5680022,80.6313963 17.6217505,78.7081825 17.7292472,76.5675222 C20.6526098,76.2121159 23.5595747,75.5917538 26.4382989,74.7210542 C26.3827286,74.1929698 26.3973044,73.6493535 26.4884033,73.1066509 L26.4884033,73.1066509 Z M113.493287,30.7621421 C113.737432,30.7036691 113.961535,30.3857221 114.100005,30.128989 C114.181994,29.9773247 114.099094,29.7224189 114.0581,29.5205043 C113.731966,27.9371648 113.414942,26.3529117 113.064211,24.7741405 C112.796381,23.5708756 112.484823,22.3767471 112.170531,21.0839454 C115.026481,19.9108306 118.063717,19.5855745 120.680988,17.9583803 C119.161459,17.1251399 117.677458,17.6724107 116.18617,17.9574667 C114.632023,18.2553136 113.07241,18.5248376 111.480002,18.8135481 C111.068235,15.9291841 110.259277,13.2704895 110.384083,10.4820579 C110.396837,10.1805564 110.361308,9.80870462 110.194597,9.58486263 C110.007844,9.33452506 109.623407,9.04764186 109.367419,9.08418749 C109.126007,9.1179922 108.839957,9.52182142 108.756146,9.81418646 C108.662314,10.1458381 108.769811,10.5368763 108.792585,10.9023326 C108.970228,13.6935052 109.147871,16.4855914 109.331891,19.3836599 C106.836693,20.2415686 104.00534,20.4964744 101.871805,22.4671975 C102.112306,23.3497745 102.601506,23.4776842 103.407731,23.2355694 C105.53489,22.5932799 107.683912,22.0268227 109.906725,21.4082879 C110.112608,21.9984998 110.305738,22.4754203 110.445119,22.9678727 C111.015398,24.9696596 111.558347,26.9805829 112.135914,28.9805426 C112.27985,29.4793904 112.465692,29.9828065 112.737166,30.4204404 C112.864705,30.6260096 113.271917,30.8151332 113.493287,30.7621421 L113.493287,30.7621421 Z M55.5425649,161.632046 C57.134973,162.193935 57.6287289,161.977402 57.7462464,160.532936 C57.8555651,159.190798 57.8109266,157.834042 57.7890629,156.484594 C57.7772201,155.711654 57.6761003,154.939628 57.6095981,154.089028 C59.4561722,153.400143 61.240799,152.750544 63.0126719,152.065314 C63.5875058,151.843299 64.1778264,151.596616 64.6642944,151.230246 C64.9303031,151.031072 64.9940723,150.559634 65.1498514,150.211537 C64.8264504,150.106468 64.4811857,149.870749 64.1823814,149.920085 C63.2641048,150.069922 62.361315,150.321173 61.4548813,150.545929 C60.1057071,150.881235 58.7601768,151.226591 57.2761763,151.603925 C57.0712038,150.790785 56.8616764,150.204227 56.7833314,149.601225 C56.5209667,147.582992 56.3232821,145.55471 56.0663833,143.535563 C55.8796307,142.071911 55.3503462,141.864514 53.8572358,142.754401 C54.2015895,145.731956 54.5523202,148.776207 54.9240036,151.993136 C54.5750949,152.122873 54.2954214,152.251696 54.002083,152.329356 C52.795934,152.650044 51.5396806,152.839167 50.389102,153.296901 C49.1446914,153.793008 47.9649611,154.48098 46.8216703,155.189965 C46.1575596,155.602017 46.286009,156.079851 47.0047791,156.438912 C47.6570469,156.763255 48.2018182,156.503781 48.7830289,156.228775 C50.8527952,155.248438 53.0746966,154.846436 55.5425649,154.322006 L55.5425649,161.632046 Z M70.8462635,264.151677 C70.6021185,264.672452 70.5028208,265.127446 70.2313461,265.425292 C68.6170742,267.185878 66.9827606,268.930932 65.3092744,270.634872 C64.8410262,271.109965 64.8109636,271.6079 64.8073196,272.198111 C64.8000317,273.70836 64.8109636,275.223176 64.693446,276.727942 C64.5832164,278.142258 63.4198839,279.163709 62.2374206,278.97824 C61.9367943,278.93073 61.6726076,278.644761 61.3564945,278.448328 C62.5626435,276.537905 62.3276085,274.575405 62.2629283,272.527936 C59.3177019,273.429699 56.5118568,274.288522 53.7378963,275.13638 C52.9726658,273.528372 52.9444252,273.424217 54.2580708,272.848624 C55.4888165,272.308662 56.8088391,271.975183 58.0796683,271.523845 C59.1573679,271.141943 60.2232246,270.728063 61.2899924,270.315098 C61.9413493,270.062933 62.2711272,269.612508 62.2201118,268.868804 C62.0852855,266.890772 61.9868987,264.911826 61.8702921,262.93288 C61.8584493,262.72457 61.8220097,262.517174 61.801057,262.308864 C61.7290889,261.596224 61.4439495,260.783084 62.4041315,260.442296 C63.0955719,260.196526 63.9418804,260.966725 64.1468528,262.073144 C64.3654901,263.252655 64.5021384,264.447697 64.6396977,265.639998 C64.7171317,266.311524 64.7225977,266.990359 64.7599482,267.667367 C64.8692668,267.739544 64.9785855,267.812636 65.0879041,267.885727 C65.9642752,267.178569 66.8069397,266.422074 67.7261273,265.777044 C68.6134303,265.155768 69.2201487,263.989049 70.8462635,264.151677 L70.8462635,264.151677 Z" id="Fill-1" fill="#0031FF" style="mix-blend-mode: multiply;" mask="url(#mask-2)"></path>
            </g>
        </g>
    </g>
</svg>