<?xml version="1.0" encoding="utf-8"?>
<!-- Generator: Adobe Illustrator 24.0.0, SVG Export Plug-In . SVG Version: 6.00 Build 0)  -->
<svg version="1.1" id="Layer_1" xmlns="http://www.w3.org/2000/svg" xmlns:xlink="http://www.w3.org/1999/xlink" x="0px" y="0px"
	 viewBox="0 0 1000 1000" style="enable-background:new 0 0 1000 1000;" xml:space="preserve">
<style type="text/css">
	.st0{fill:#FFFFFF;}
</style>
<g>
	<path class="st0" d="M526.6,918.1H415.7c-11.3,0-17.1-13.5-9.3-21.7c31.5-32.8,56.5-70.8,75-114.2c3.2-7.6-1.5-16.3-9.6-17.7
		c-24.8-4.3-45.9-16.5-63.3-36.8c-21.1-24.5-31.6-53.2-31.6-86.2c0-37.6,12.5-69.1,37.6-94.7c25-25.6,56.3-38.4,93.9-38.4
		c42.1,0,76.2,15.9,102.4,47.8c22.8,30.7,34.1,67.7,34.1,111c0,85-36.3,167.3-108.9,246.8C533.6,916.6,530.2,918.1,526.6,918.1z
		 M511.7,325.8c-35.3,0-66-13.1-92.2-39.3c-26.2-26.2-39.3-56.9-39.3-92.2c0-37.6,12.8-69.1,38.4-94.7c25.6-25.6,56.6-38.4,93-38.4
		c35.3,0,65.7,13.1,91.3,39.3c25.6,26.2,38.4,57.5,38.4,93.9c0,36.4-12.5,67.4-37.6,93C578.9,313,548.1,325.8,511.7,325.8z"/>
</g>
</svg>
