<?xml version="1.0" encoding="UTF-8"?>
<svg width="31px" height="20px" viewBox="0 0 31 20" version="1.1" xmlns="http://www.w3.org/2000/svg" xmlns:xlink="http://www.w3.org/1999/xlink">
    <!-- Generator: Sketch 52.6 (67491) - http://www.bohemiancoding.com/sketch -->
    <title>arrow-next</title>
    <desc>Created with Sketch.</desc>
    <g id="arrow-next" stroke="none" stroke-width="1" fill="none" fill-rule="evenodd">
        <g id="arrow-blue" transform="translate(3.000000, 2.000000)" fill="#51B6F2">
            <path d="M18.051,0.2 L17.641,0.61 C17.3709162,0.882791275 17.3709162,1.32220872 17.641,1.595 L22.512,6.438 L0.7,6.438 C0.313400675,6.438 4.73447626e-17,6.75140068 0,7.138 L0,7.718 C4.73447626e-17,8.10459932 0.313400675,8.418 0.7,8.418 L22.511,8.418 L17.64,13.261 C17.3699162,13.5337913 17.3699162,13.9732087 17.64,14.246 L18.05,14.656 C18.3227913,14.9260838 18.7622087,14.9260838 19.035,14.656 L25.795,7.924 C26.0650838,7.65120872 26.0650838,7.21179128 25.795,6.939 L19.035,0.207 C18.764248,-0.0643736707 18.3255854,-0.0674942379 18.051,0.2 Z" id="Path"></path>
        </g>
    </g>
</svg>