<svg xmlns="http://www.w3.org/2000/svg" width="34" height="34" viewBox="0 0 34 34"><path d="M29.021,4.979A17,17,0,1,0,4.979,29.021,17,17,0,1,0,29.021,4.979Zm2.254,6.514c-.332-.6-1.164-.881-2.253-1.251-1.168-.4-1.581-1.6-2.059-2.989A6.405,6.405,0,0,0,25.1,4.026a15.388,15.388,0,0,1,6.173,7.468ZM26.5,17.325a4.3,4.3,0,0,1-1.168,3.947,5.3,5.3,0,0,0-.852,1.676c-.554,1.481-1.078,2.88-3.308,2.9a2.905,2.905,0,0,1-.4-1.246c-.145-.819-.228-1.88-.318-3a31.714,31.714,0,0,0-.716-5.29c-.544-2.069-1.457-3.291-2.79-3.737a5.657,5.657,0,0,0-1.816-.289,10.689,10.689,0,0,0-1.278.1,7.558,7.558,0,0,1-.807.068h0c-.4,0-.848,0-1.4-1.272a5.364,5.364,0,0,1,2.132-6.3,5.633,5.633,0,0,1,2.961-1.209,4.891,4.891,0,0,1,2.281.736,5.423,5.423,0,0,0,2.691.687c.258,0,.493-.014.719-.027.19-.012.369-.022.535-.022A1.656,1.656,0,0,1,24,5.331,4.927,4.927,0,0,1,25.355,7.81c.544,1.584,1.161,3.38,3.12,4.046.264.09.716.243,1.037.377-.277.286-.739.7-1.193,1.1-.292.262-.624.558-.991.893a3.2,3.2,0,0,0-.823,3.1ZM1.7,16.869c.184.032.381.071.585.114a6.5,6.5,0,0,1,1.6.491,6.083,6.083,0,0,1-.393.6,2.766,2.766,0,0,0-.745,2.157,3.653,3.653,0,0,1-.175,1.855A15.233,15.233,0,0,1,1.7,17c0-.044,0-.087,0-.131ZM17,32.3A15.315,15.315,0,0,1,3.519,24.23,6.92,6.92,0,0,0,4.4,19.863a3.462,3.462,0,0,1,.476-.8c.461-.655,1.034-1.467.609-2.329-.3-.605-1.095-1.013-2.662-1.367-.364-.082-.717-.148-1.018-.2A15.293,15.293,0,0,1,24.4,3.614a3.456,3.456,0,0,0-1.428-.274c-.216,0-.43.012-.638.026s-.411.024-.619.024a3.752,3.752,0,0,1-1.89-.488,6.439,6.439,0,0,0-3.08-.935,7.1,7.1,0,0,0-3.9,1.489,7.253,7.253,0,0,0-2.9,3.89,6.461,6.461,0,0,0,.148,4.512c.692,1.584,1.6,2.292,2.961,2.292h0a8.529,8.529,0,0,0,1.006-.08,9.2,9.2,0,0,1,1.08-.083,3.939,3.939,0,0,1,1.277.2c.746.25,1.3,1.086,1.685,2.557a30.437,30.437,0,0,1,.665,4.991,27.522,27.522,0,0,0,.437,3.657,4.06,4.06,0,0,0,.544,1.382,1.654,1.654,0,0,0,1.379.775,4.591,4.591,0,0,0,3.568-1.44,7.686,7.686,0,0,0,1.382-2.564A4.574,4.574,0,0,1,26.6,22.4a5.924,5.924,0,0,0,1.588-5.267c-.107-.959-.109-1.3.279-1.652.36-.328.689-.622.978-.881.617-.551,1.063-.949,1.375-1.289a1.747,1.747,0,0,0,.578-1.47.072.072,0,0,1,0-.019A15.3,15.3,0,0,1,17,32.3Z" fill="#0a3c81"/></svg>