<svg xmlns="http://www.w3.org/2000/svg" width="42.822" height="45.62" viewBox="0 0 42.822 45.62"><g transform="translate(8.91 11.226)"><path d="M116.587,125.994a.891.891,0,1,0,.891.891A.891.891,0,0,0,116.587,125.994Z" transform="translate(-115.696 -125.994)" fill="#053e81"/></g><g transform="translate(9.801 24.324)"><path d="M133.715,276.55h-2.673v-2.673a.891.891,0,1,0-1.782,0v2.673h-2.673a.891.891,0,1,0,0,1.782h2.673V281a.891.891,0,1,0,1.782,0v-2.673h2.673a.891.891,0,1,0,0-1.782Z" transform="translate(-125.696 -272.986)" fill="#053e81"/></g><g transform="translate(0)"><g transform="translate(0)"><path d="M57.568,28.689a7.124,7.124,0,0,0-9.737-2.609L44.212,28.17V20.433a4.487,4.487,0,0,0-.891-2.673l-4.455-5.94V9.291a2.677,2.677,0,0,0,1.782-2.52v-4.1A2.676,2.676,0,0,0,37.975,0H21.938a2.676,2.676,0,0,0-2.673,2.673v4.1a2.677,2.677,0,0,0,1.782,2.52V11.82l-4.455,5.94a4.486,4.486,0,0,0-.891,2.672V37.688a4.46,4.46,0,0,0,4.455,4.455H34.475a7.121,7.121,0,0,0,9.682,2.52l10.8-6.237A7.133,7.133,0,0,0,57.568,28.689ZM21.047,2.673a.892.892,0,0,1,.891-.891H37.975a.892.892,0,0,1,.891.891v4.1a.892.892,0,0,1-.891.891H21.938a.892.892,0,0,1-.891-.891v-4.1ZM18.018,18.829l4.633-6.177a.891.891,0,0,0,.178-.535V9.444H37.084v1.782H29.066a.891.891,0,1,0,0,1.782H37.53l4.365,5.82a2.7,2.7,0,0,1,.516,1.307H17.5A2.7,2.7,0,0,1,18.018,18.829Zm2.138,21.532a2.676,2.676,0,0,1-2.673-2.673v-.9H33.671a7.139,7.139,0,0,0,.043,3.573H20.156Zm14.214-5.346H17.483v-13.1H42.43V29.2l-5.4,3.119A7.075,7.075,0,0,0,34.369,35.015Zm8.9,8.1a5.346,5.346,0,1,1-5.346-9.259l4.836-2.792L48.1,40.327Zm10.8-6.237-4.423,2.554L44.3,30.177l4.423-2.553a5.346,5.346,0,1,1,5.346,9.259Z" transform="translate(-15.701)" fill="#053e81"/></g></g></svg>