<svg xmlns="http://www.w3.org/2000/svg" width="37.024" height="37.024" viewBox="0 0 37.024 37.024"><g transform="translate(-22.086 -24.408)" opacity="0.601"><path d="M27.529,56.013c.013.012.028.016.041.027a18.439,18.439,0,0,0,13.04,5.392h0A18.49,18.49,0,0,0,53.718,29.891c-.011-.013-.015-.029-.027-.04s-.028-.016-.04-.027A18.49,18.49,0,0,0,27.5,55.972.213.213,0,0,0,27.529,56.013Zm10.5-20.1c.011,0,.019.006.03.006a1.916,1.916,0,0,1,1.911,1.913v1.3a3.162,3.162,0,0,0-1.883-.654c-.011,0-.019-.006-.03-.006a1.915,1.915,0,0,1-1.914-1.914h0V35.264a3.156,3.156,0,0,0,1.879.651Zm5.137.006c.011,0,.019-.006.03-.006a3.156,3.156,0,0,0,1.879-.651v1.292h0a1.916,1.916,0,0,1-1.914,1.914c-.011,0-.019.006-.03.006a3.163,3.163,0,0,0-1.879.651V37.832a1.916,1.916,0,0,1,1.912-1.911Zm-.005,14.038c-.011,0-.019.006-.03.006a3.163,3.163,0,0,0-1.879.651v-1.29a1.917,1.917,0,0,1,1.914-1.914c.011,0,.019-.006.03-.006a3.15,3.15,0,0,0,1.879-.651v1.289a1.916,1.916,0,0,1-1.915,1.917h0Zm-5.067.006c-.011,0-.019-.006-.03-.006a1.909,1.909,0,0,1-1.891-1.686l1.007-1.007a3.094,3.094,0,0,0,.849.137c.011,0,.019.006.03.006a1.918,1.918,0,0,1,1.914,1.914v1.294a3.158,3.158,0,0,0-1.882-.65Zm-.065-10.222c.011,0,.019.006.03.006a1.917,1.917,0,0,1,1.914,1.914v1l-.163.168a3.171,3.171,0,0,0-1.717-.526c-.011,0-.019-.006-.03-.006a1.915,1.915,0,0,1-1.914-1.914h0V39.093a3.156,3.156,0,0,0,1.879.651Zm4.833.037-1.58,1.579a1.911,1.911,0,0,1,1.577-1.576Zm.3,3.8c.011,0,.019-.006.03-.006a3.156,3.156,0,0,0,1.879-.651v1.292h0a1.917,1.917,0,0,1-1.912,1.919c-.011,0-.019.006-.03.006a3.163,3.163,0,0,0-1.879.651v-1.3a1.916,1.916,0,0,1,1.914-1.915Zm-4.876,2.578,1.488-1.488a1.9,1.9,0,0,1,.2.825v1.3a3.157,3.157,0,0,0-1.682-.632Zm-2.14-1.942V42.922a3.156,3.156,0,0,0,1.879.651c.011,0,.019.006.03.006a1.9,1.9,0,0,1,.815.189l-1.96,1.964a1.9,1.9,0,0,1-.759-1.517Zm8.925-3.829A1.916,1.916,0,0,1,43.157,42.3c-.011,0-.019.006-.03.006a3.182,3.182,0,0,0-1.278.287l3.222-3.222v1.014h0Zm-9.937,8.923a3.188,3.188,0,0,0,2.892,1.924c.011,0,.019.006.03.006a1.917,1.917,0,0,1,1.914,1.914V60.14A17.154,17.154,0,0,1,28.9,55.546ZM41.25,60.14V53.152a1.916,1.916,0,0,1,1.914-1.914c.011,0,.019-.006.03-.006a3.191,3.191,0,0,0,3.155-3.186v-3.83h0V40.387h0V38.1l6.876-6.876A17.209,17.209,0,0,1,41.25,60.14Zm-.64-34.432a17.159,17.159,0,0,1,11.712,4.61l-5.974,5.974v-3.56a.638.638,0,0,0-1.276,0A1.911,1.911,0,0,1,43.8,34.526V31.452a.638.638,0,1,0-1.276,0h0V34.71a3.164,3.164,0,0,0-1.276.589v-5.76a.638.638,0,0,0-1.276,0V35.3A3.166,3.166,0,0,0,38.7,34.71V31.452a.638.638,0,0,0-1.276,0v3.073a1.91,1.91,0,0,1-1.276-1.8.638.638,0,0,0-1.276,0v3.828h0v3.828h0v3.828h0v3.552L28,54.644A17.212,17.212,0,0,1,40.61,25.708Z" fill="#053e81"/></g></svg>