<svg xmlns="http://www.w3.org/2000/svg" width="37" height="37" viewBox="0 0 37 37"><g transform="translate(-172 -34)"><g transform="translate(65.232 9.58)" opacity="0.601"><path d="M125.268,61.42a18.5,18.5,0,1,1,18.5-18.5A18.5,18.5,0,0,1,125.268,61.42Zm0-35.724A17.224,17.224,0,1,0,142.492,42.92h0A17.244,17.244,0,0,0,125.268,25.7Z" fill="#053e81"/><path d="M112.623,56.2a.639.639,0,0,1-.452-1.09l25.29-25.29a.639.639,0,0,1,.982.819.626.626,0,0,1-.082.081l-25.29,25.29a.634.634,0,0,1-.452.187Z" fill="#053e81"/><path d="M118.214,40.377a.635.635,0,0,1-.636-.634v0a2.544,2.544,0,0,0-5.088,0,.636.636,0,1,1-1.272,0,3.816,3.816,0,0,1,7.633,0,.634.634,0,0,1-.634.636Z" fill="#053e81"/><path d="M115.034,49.915a3.82,3.82,0,0,1-3.813-3.816.636.636,0,1,1,1.272,0,2.544,2.544,0,1,0,5.088,0,.636.636,0,0,1,1.272,0A3.819,3.819,0,0,1,115.034,49.915Z" fill="#053e81"/><path d="M111.855,46.737a.635.635,0,0,1-.635-.633v-6.36a.636.636,0,1,1,1.272,0V46.1a.635.635,0,0,1-.637.633Z" fill="#053e81"/><path d="M118.213,46.737a.635.635,0,0,1-.631-.636V42.919a.636.636,0,0,1,1.272,0h0V46.1a.635.635,0,0,1-.633.637Z" fill="#053e81"/><path d="M118.213,43.555h-1.908a.636.636,0,1,1,0-1.272h1.909a.636.636,0,1,1,0,1.272Z" fill="#053e81"/><path d="M138.681,40.377a.635.635,0,0,1-.636-.634v0a2.544,2.544,0,1,0-5.088,0,.636.636,0,0,1-1.272,0,3.816,3.816,0,0,1,7.633,0,.634.634,0,0,1-.634.636Z" fill="#053e81"/><path d="M135.5,49.915a3.82,3.82,0,0,1-3.82-3.816.636.636,0,0,1,1.272,0,2.544,2.544,0,1,0,5.088,0,.636.636,0,0,1,1.272,0A3.82,3.82,0,0,1,135.5,49.915Z" fill="#053e81"/><path d="M132.3,46.737a.634.634,0,0,1-.636-.633v-6.36a.636.636,0,0,1,1.272,0V46.1A.634.634,0,0,1,132.3,46.737Z" fill="#053e81"/><path d="M138.68,46.736a.635.635,0,0,1-.638-.632V39.735a.636.636,0,0,1,1.272,0h0V46.1a.634.634,0,0,1-.634.636Z" fill="#053e81"/><path d="M121.435,49.915a.635.635,0,0,1-.635-.635h0V36.561a.636.636,0,0,1,1.272,0V49.279a.634.634,0,0,1-.634.636Z" fill="#053e81"/><path d="M129.1,49.915a.635.635,0,0,1-.635-.635h0V36.561a.636.636,0,0,1,1.272,0h0V49.279a.634.634,0,0,1-.634.636Z" fill="#053e81"/><path d="M125.277,47.379a.655.655,0,0,1-.223-.04.636.636,0,0,1-.373-.818h0L128.5,36.337a.636.636,0,0,1,1.2.424l-.009.022-3.816,10.184a.632.632,0,0,1-.6.413Z" fill="#053e81"/><path d="M125.258,47.38a.635.635,0,0,1-.6-.412l-3.812-10.183a.636.636,0,0,1,1.191-.446l3.816,10.183a.636.636,0,0,1-.372.819h0a.65.65,0,0,1-.223.039Z" fill="#053e81"/></g></g></svg>