<svg xmlns="http://www.w3.org/2000/svg" width="33.714" height="33.714" viewBox="0 0 33.714 33.714"><path d="M33.513.3a.842.842,0,0,0-.644-.3h-.86C23.514,0,16.8,0,11.863,1.177A14.725,14.725,0,0,0,5.588,4.108,11.28,11.28,0,0,0,2.06,9.888a14.264,14.264,0,0,0,.229,7.479A10.108,10.108,0,0,0,3.823,20.4,23.123,23.123,0,0,0,0,32.871a.843.843,0,0,0,1.686,0c0-7.762,4.6-13.52,7.339-16.259a26.957,26.957,0,0,1,6.432-4.8,12.959,12.959,0,0,1,5.615-1.694.843.843,0,1,0,0-1.686,14.382,14.382,0,0,0-6.4,1.888,28.67,28.67,0,0,0-6.842,5.1,30.228,30.228,0,0,0-2.99,3.489A8.338,8.338,0,0,1,3.9,16.876a12.657,12.657,0,0,1-.217-6.532C6.1,1.706,15.253,1.684,31.864,1.689c-1.981,10.6-5.674,17.459-10.983,20.4A13.653,13.653,0,0,1,9.2,22.558a9.045,9.045,0,0,1-1.178-.59.842.842,0,1,0-.861,1.448,10.684,10.684,0,0,0,1.4.7,16.716,16.716,0,0,0,4.829,1.158c.462.04.919.059,1.372.059A14.146,14.146,0,0,0,21.7,23.561a18.757,18.757,0,0,0,6.977-7.255A46.812,46.812,0,0,0,33.7.991a.843.843,0,0,0-.185-.686Z" transform="translate(-0.002 0)" fill="#053e81"/></svg>