<?xml version="1.0" encoding="UTF-8"?>
<svg width="90px" height="48px" viewBox="0 0 90 48" version="1.1" xmlns="http://www.w3.org/2000/svg" xmlns:xlink="http://www.w3.org/1999/xlink">
    <!-- Generator: Sketch 52.6 (67491) - http://www.bohemiancoding.com/sketch -->
    <title>Artboard</title>
    <desc>Created with Sketch.</desc>
    <g id="Artboard" stroke="none" stroke-width="1" fill="none" fill-rule="evenodd">
        <g id="logo2" transform="translate(3.600000, 6.000000)" fill="#0A3C81" fill-rule="nonzero">
            <path d="M44.5249376,0.29439743 C45.9178938,0.302035025 47.4045201,0.854667618 48.3884702,1.8638568 C48.4094323,1.88540429 48.4304016,1.90695227 48.4509091,1.92894955 C50.0231775,3.60884509 50.3496764,6.38726876 49.1520788,8.36704124 C48.4420032,9.54099696 47.1690172,10.2161929 45.844293,10.4114712 C44.9152083,10.5479377 43.9709557,10.5169689 43.0333966,10.5685934 C42.4820954,10.5995694 42.1038583,10.7876825 42.1114462,11.3820617 C42.123941,12.2987722 42.1114462,13.216374 42.1114462,14.1330917 C42.1114462,15.9687606 42.1123394,17.8039869 42.1172542,19.6401055 C42.1176938,19.8789436 42.067735,19.9826427 41.8036898,19.9787164 C40.869244,19.9651345 39.8995686,19.9651345 38.9513017,19.977711 C38.6658404,19.9812933 38.5659308,19.8933115 38.5663777,19.5943118 C38.5703987,15.9027683 38.5712847,12.2112247 38.5717316,8.51923901 C38.5721785,7.12081993 38.5730646,5.72285016 38.5726254,4.32398903 C38.5726254,3.6066044 38.5726254,2.88876998 38.5717316,2.17093556 C38.5712847,1.82166088 38.5708307,1.47194367 38.5699446,1.12222645 C38.5695049,0.845239109 38.4646882,0.458707421 38.796087,0.329863525 C38.9102641,0.285418702 39.0356108,0.284526868 39.1578232,0.284915778 C40.9441855,0.288109663 42.7305478,0.287217346 44.5169101,0.29439743 L44.5249376,0.29439743 Z M42.1114462,5.54014066 C42.1114462,6.21936921 42.1159063,6.89904705 42.1087726,7.57828285 C42.1060922,7.82518602 42.1845929,7.97242991 42.4522202,7.94864123 C43.3117169,7.87322765 44.1774838,8.08107517 45.040101,7.76593898 C45.5494712,7.58007424 45.9076329,7.27973303 46.1150399,6.84114163 C46.3723986,6.29838733 46.4522399,5.71926012 46.3358284,5.08267775 C46.2448324,4.58392525 46.1382359,4.18168405 45.7876549,3.78258359 C45.3978157,3.33903831 44.9241291,3.19359307 44.4170005,3.14555096 C43.7898641,3.08583964 43.1529425,3.13208263 42.520013,3.13611521 C42.1457969,3.13836363 42.112794,3.17473605 42.1114462,3.56485054 C42.110106,4.22343067 42.1114462,4.88155328 42.1114462,5.54014066 Z M81.6000608,19.9938698 C81.3833082,19.9835417 81.1518186,20.1236055 80.9617847,20.2214662 C80.2307542,20.5990264 79.4979075,20.9707409 78.7615159,21.3366097 C75.5991673,22.9065111 72.3926242,24.4409619 69.0660954,25.6274864 C65.8002554,26.7924484 62.4349383,27.6440661 59.0160806,28.2083756 C56.291288,28.6568525 53.3867224,28.6460752 50.6445054,28.3686308 C49.004437,28.2029869 47.3764243,27.9066928 45.7894343,27.456867 C44.1783699,26.9998611 42.6792487,26.3192764 41.1404378,25.6714737 C40.5931576,25.4407225 40.0463094,25.2099709 39.4954619,24.9881985 C38.9499615,24.7691239 38.388853,24.5801261 37.8255183,24.4126836 C36.1925909,23.9273844 34.4967705,23.6921437 32.800965,23.5794586 C31.1234331,23.4685872 29.4561626,23.4367116 27.7853176,23.6346808 C26.3312478,23.8079691 24.8874466,24.0683478 23.461919,24.4059456 C20.193391,25.1803438 17.0247727,26.3560909 13.9979953,27.8146711 C11.716091,28.9140983 9.51180134,30.1724386 7.37887133,31.5412305 C5.96449896,32.4489622 4.58134962,33.4047279 3.22407661,34.3964166 C2.54520202,34.8924781 1.87302919,35.3975189 1.20621029,35.910204 C0.873478115,36.1665429 0.538951701,36.4215253 0.211119848,36.684609 C0.150013926,36.7335429 -0.0471321619,36.8480194 0.0103996804,36.9503692 C0.0844473634,37.081904 0.410939056,36.8260221 0.50148098,36.7770882 C0.911834916,36.5557651 1.32262853,36.3357913 1.73476231,36.1180588 C2.57463802,35.6740637 3.41943518,35.2390551 4.26957185,34.8148239 C7.27004093,33.3185369 10.3440964,31.9596305 13.5153879,30.8709739 C16.123337,29.9758114 18.8120287,29.2489833 21.529702,28.7879376 C24.9574733,28.2061272 28.4704322,28.1311639 31.9187038,28.5728955 C32.8946197,28.6976996 33.8669831,28.8642575 34.8201494,29.1098191 C35.9187312,29.3926444 36.9869755,29.7787195 38.0400591,30.1989327 C40.9883359,31.3751223 43.8085995,32.6958722 46.9798987,33.1371618 C48.6105917,33.3643306 50.2520007,33.3840794 51.8987488,33.2992306 C55.3666491,33.1201034 58.7930726,32.3771242 62.0763149,31.2534585 C63.7435854,30.6828752 65.3765349,30.0139748 66.9746503,29.2714304 C69.1299042,28.2644824 71.2280294,27.1448638 73.2690696,25.9219814 C74.7369601,25.0425212 76.1705147,24.1060546 77.5661743,23.1152727 C78.2637473,22.6196532 78.9519895,22.1105654 79.630388,21.588459 C79.9693822,21.3271812 80.3061354,21.0627703 80.639768,20.7952115 C80.9443967,20.5509848 81.3636791,20.3013761 81.6000608,19.9938698 Z M7.79635183,11.2190939 C7.79635183,8.46491638 7.79635183,5.71162301 7.79635183,2.95789531 C7.79635183,2.58888579 7.77762415,2.49775593 8.1701288,2.49595004 C9.55193798,2.48831293 10.9337472,2.42771654 12.3164424,2.44612426 C13.9542697,2.46722198 15.7125361,2.48831293 17.2277124,3.19718311 C19.349048,4.18930667 20.0073997,7.3434919 18.7134593,9.23347566 C18.404802,9.68465805 18.0105103,10.0132698 17.5528783,10.2978943 C17.2856978,10.464445 17.0149581,10.7836355 17.389182,11.0045088 C18.2308519,11.5023694 18.8619799,11.9234749 19.2451169,12.8666645 C19.5881321,13.7097451 19.6657251,14.648018 19.6010595,15.5503678 C19.5368336,16.4450805 19.3316528,17.3599996 18.7999875,18.0796326 C17.8561817,19.3572725 16.1634741,19.7447037 14.6715011,19.8497589 C12.5608738,19.9992585 10.4524799,19.9947761 8.33828577,19.9947761 C7.87307311,19.9947761 7.79635183,19.6998169 7.79679871,19.2890467 C7.79679871,16.5986126 7.79679871,13.9086284 7.79635183,11.2190939 Z M11.5051166,14.6906637 C11.5051166,15.3707913 11.5068893,16.051376 11.5042305,16.7314964 C11.5019966,17.2800896 11.8721995,17.2401271 12.3226973,17.2531529 C13.30842,17.2818805 14.4560737,17.2971475 15.2049534,16.552819 C16.5189693,15.2468863 16.0104928,12.6395102 14.1068257,12.2933758 C13.541257,12.1905762 12.965881,12.2386111 12.3949507,12.2341143 C12.1112765,12.2318803 11.488608,12.101245 11.4957417,12.5542116 C11.5068893,13.2662148 11.5002024,13.9786605 11.5051166,14.6906637 Z M11.5002024,7.3434919 C11.4988766,7.98860321 11.4988766,8.63325798 11.5002024,9.27836978 C11.5002024,9.36590959 11.5060032,9.46556888 11.5733563,9.52034854 C11.6255414,9.56299423 11.6978025,9.5643431 11.7642696,9.5638938 L12.7598069,9.56029603 C13.4672165,9.55715577 14.2343919,9.53381687 14.7843452,9.0866888 C15.3164646,8.65435618 15.5122701,7.91677291 15.5064841,7.22856563 C15.5029101,6.85011311 15.4471504,6.46717146 15.2919356,6.12284293 C15.136274,5.77852214 14.874448,5.47460585 14.5332347,5.3156773 C14.2018282,5.16214565 13.824038,5.15360897 13.4591818,5.14777775 C12.9212693,5.13924881 12.3708615,5.09659538 11.833835,5.12218319 C11.3713104,5.14463749 11.5064645,5.60255019 11.5046702,5.95494338 C11.5028904,6.32441718 11.5015497,6.69343347 11.5006565,7.06290726 C11.5006565,7.15628555 11.5002024,7.25010588 11.5002024,7.3434919 Z M79.4408225,13.8107605 C79.3110372,13.935565 79.2267502,14.0262451 79.1334982,14.1066048 C78.6883764,14.4886474 78.2517065,14.8828089 77.7909689,15.2446456 C77.3324436,15.6042407 76.8591818,15.9476551 76.3716674,16.2668534 C75.7075216,16.7023113 75.0224291,17.1059018 74.3489228,17.5270073 C73.9425754,17.7806408 73.5567648,18.0729023 73.1330295,18.2928688 C72.2757442,18.738205 71.3988595,19.1444933 70.5304266,19.5691743 C69.3805535,20.1316852 68.1588886,20.302725 66.9055241,20.1577223 C66.4135418,20.1007087 65.9291474,19.9022829 65.4617301,19.7164254 C64.8791911,19.4847748 64.4652702,19.0143005 64.0901531,18.5348471 C63.8885613,18.2780661 63.778815,17.9418023 63.6543913,17.6307059 C63.286408,16.7112905 63.3524286,15.7411642 63.3608953,14.7822433 C63.3716032,13.5611596 63.3751772,12.3382772 63.4523305,11.1203341 C63.4804264,10.6781382 63.085695,8.12552675 67.4010809,7.92934168 C71.3199192,8.12552675 71.2200019,10.1591721 71.3854708,10.8361522 C71.6615793,11.965221 71.5018819,13.0965238 71.5745966,14.2242288 C71.591076,14.4864062 71.4644256,14.5160334 71.2498848,14.5146773 C69.6865448,14.508846 68.122736,14.5124433 66.559411,14.5115442 C66.1437031,14.5110945 65.9710855,14.682584 65.9514569,15.1036823 C65.9229218,15.704799 66.0330924,16.6179194 66.3439764,17.1296977 C66.7128243,17.7371027 67.0420039,17.9732358 67.8189862,18.0383213 C68.3033955,18.0791828 68.6593083,18.0468647 69.3729656,17.8632489 C69.7628193,17.8183548 72.6811982,16.8114063 73.1218819,16.649338 C73.5117207,16.5056841 73.8877316,16.324766 74.2717551,16.1640538 C74.687463,15.9894162 75.1089716,15.8268981 75.5210761,15.6441886 C75.9055686,15.4731483 76.2811398,15.2805605 76.6620434,15.1014338 C76.9898603,14.9474519 77.3257495,14.8082877 77.6491135,14.6444202 C78.1937277,14.3683397 78.7302857,14.0769849 79.2713403,13.7950442 C79.2931808,13.7833745 79.3293185,13.7990913 79.4408225,13.8107605 Z M67.568791,12.9928102 C67.9702021,12.9928102 68.3716424,12.9919107 68.7730683,12.9932672 C68.9581659,12.993717 69.1071407,12.9254763 69.077697,12.7207623 C69.1225995,11.4646602 69.0701192,10.7110578 68.9202555,10.4599554 C68.810085,10.1564816 68.3288106,9.80676439 67.7578875,9.83190193 C67.6423702,9.83684132 67.5255046,9.8328015 67.4104265,9.82247342 C67.0375361,9.78790738 66.3190006,10.0397639 66.1677852,10.3710739 C65.8671698,11.0305386 65.8867985,11.971045 65.9273748,12.6978654 C65.9697525,13.0004401 66.1495039,12.9932672 66.522834,12.993717 C66.8711739,12.993717 67.2199822,12.993717 67.568791,12.9928102 Z M54.124901,19.9786028 C54.124901,16.9303724 54.1471961,18.8805245 54.1471961,8.13045841 C54.0575474,8.13045841 53.6632557,8.13989465 53.5740468,8.13764622 C52.9397987,8.12013807 52.2890272,8.05998422 51.6583384,8.11160139 C51.223456,8.14707473 51.1016977,8.42854396 51.0972304,8.84021367 C51.0932017,9.27432995 51.1114979,9.71023812 51.1168446,10.1443476 C51.1284462,11.0282975 51.134247,11.9126971 51.1347011,12.7975242 C51.1351403,13.4606012 51.1324744,14.1241202 51.1271128,14.7871822 C51.1222057,15.3478945 51.1766248,15.9000778 50.8599399,16.3916502 C50.4750082,16.9891769 49.7314685,17.4188113 49.0222863,17.4569679 C48.1235242,17.5059018 47.9031821,16.6134298 47.8452038,15.8919981 C47.7806726,15.0845281 47.7620861,13.8716738 47.7894441,12.2534355 C47.7882528,12.3276495 47.808624,12.0452687 47.8505577,11.406293 C47.9187974,11.4076418 46.9504622,11.9324464 45.7586581,12.0774419 L45.0017442,12.1277174 C44.9673935,12.1200948 44.9348375,12.1470387 44.9379575,12.1820473 C44.9562531,12.398431 45.0111119,13.0556695 45.0115511,13.2558794 C45.0119979,13.6213134 45.0124376,13.9867474 45.0128989,14.3521736 C45.0128989,15.0650687 45.0133381,15.7775144 45.0160117,16.4899746 C45.0209187,17.7034285 44.7827427,19.0946603 46.1792663,19.8618779 C46.5588436,20.0706323 46.9901524,20.1774711 47.4223694,20.1765846 C48.6699106,20.1738884 49.5102332,19.4071205 50.2965903,18.5496571 C50.425057,18.4091435 50.8300427,17.7070258 51.0620007,17.9732358 C51.1387,18.0616674 51.142274,18.1900693 51.1413808,18.3067865 C51.1387,18.7220535 51.136034,19.1373132 51.1333532,19.5525657 C51.1324744,19.6805173 51.1395932,19.8259625 51.2377235,19.9072218 C51.3139979,19.9700734 51.4205944,19.9732214 51.5191638,19.9732214 C52.2399549,19.9727644 53.6628017,19.9786028 54.124901,19.9786028 Z M63.438063,7.92934168 C62.733327,7.84898194 62.0950503,8.07255347 61.9710514,8.13045841 C61.2203924,8.48331637 60.9309096,8.72978425 60.3287563,9.41261009 C60.2391082,9.54413722 60.1552603,9.68779831 60.0370473,9.78790738 C59.9456265,9.86601868 59.8024382,9.92303179 59.6869205,9.91495987 C59.6302747,9.91092005 59.5464124,9.74167889 59.5410657,9.64335397 C59.5174233,9.2303354 59.5031558,8.81507564 59.5192252,8.40206432 C59.5267982,8.20004802 59.4670329,8.13045841 59.2783608,8.13135073 C58.5811977,8.13404845 57.8836026,8.13404845 57.1864688,8.13090819 C57.0040515,8.13001636 56.9572059,8.21620731 56.9572059,8.38815393 C56.9607656,12.152855 56.9612197,15.9171361 56.9558715,19.6814096 C56.9554189,19.9314675 57.0615762,19.9812933 57.2837048,19.977711 C58.0227772,19.9669259 58.7627356,19.9606526 59.5018228,19.9794947 C59.7895181,19.9866825 59.8573109,19.887915 59.8559635,19.6127191 C59.8470427,17.3802054 59.8746989,15.146328 59.8372281,12.9142564 C59.7614078,12.011007 60.0317006,11.7003459 61.0736295,11.6563581 C61.2837173,11.6473794 61.783273,11.7016948 61.7426823,11.5010274 C61.6548207,11.0637631 61.7426823,9.10777975 63.438063,7.92934168 Z M21.8387989,14.0231048 L21.8423802,14.0231048 C21.8423802,15.8726991 21.8477197,17.7222855 21.8370263,19.571872 C21.8356861,19.8762458 21.9324681,19.9848834 22.2384594,19.9781458 C22.9882324,19.9615445 23.7384595,19.9678255 24.4882397,19.977254 C24.6987672,19.9794947 24.7924368,19.9233806 24.7919899,19.6917372 C24.787969,15.9283556 24.7888551,12.1654315 24.7933253,8.4025141 C24.7937698,8.21396613 24.7371312,8.12956658 24.5431056,8.13044875 C23.7299856,8.13494802 22.9164187,8.13451321 22.1033058,8.13044875 C21.9070458,8.12956658 21.8321193,8.19061951 21.8329977,8.41104305 C21.8428199,10.2812857 21.8387989,12.1524274 21.8387989,14.0231048 Z M21.6907103,4.49278815 C21.5685205,5.42475785 22.4431862,6.05057734 23.1929664,6.05730813 C24.3388258,6.06852755 24.7960037,5.49390492 24.8637965,4.51972433 C24.9302636,3.56978944 24.0952882,2.82097902 23.2759204,2.82499517 C22.4726222,2.8281591 21.5515578,3.56844058 21.6907103,4.49278815 Z M35.7108768,10.2996857 C35.3040974,9.28151004 34.5387091,8.51115211 33.4566215,8.14347696 C32.7911432,7.91766474 32.080159,7.85123037 31.3781033,7.87546883 C30.6845292,7.89881497 29.9856007,8.01194259 29.3499976,8.29207744 C26.7331201,9.44492046 27.0203761,12.6781166 27.0921755,15.0538492 C27.1278592,16.2421724 27.1738038,17.5022968 27.8272489,18.492644 C28.4057522,19.3694064 29.4017508,19.9090205 30.430291,20.0975684 C31.8839139,20.3646847 33.7215681,20.166701 34.8500251,19.1269856 C34.9900862,18.9981412 35.1185529,18.8580702 35.235396,18.7081281 C36.2933942,17.3501213 36.1644878,15.5306112 36.1337189,13.9081786 C36.1149835,12.9034862 36.1408526,11.8857609 35.9044488,10.9097816 C35.8531497,10.6983368 35.7884918,10.4945219 35.7108768,10.2996857 Z M31.6354693,17.9108335 C29.8192164,17.9108335 29.8852442,16.0796543 29.8852442,13.9593609 C29.8852442,11.8390754 29.8852442,10.1564816 31.6354693,10.2328015 C33.1203152,10.2969947 33.3196952,11.9580337 33.3196952,14.0778773 C33.3196952,16.1986199 33.3196952,17.9108335 31.6354693,17.9108335 Z M81.5487767,6.65707602 C81.5487767,8.28534714 80.2789328,9.56299423 78.6268087,9.56299423 C76.9916623,9.56299423 75.6869992,8.28534714 75.6869992,6.65707602 C75.6869992,5.06382798 76.9916623,3.78618088 78.6268087,3.78618088 C80.2789328,3.78618088 81.5487767,5.06382798 81.5487767,6.65707602 Z M76.4176192,6.65707602 C76.4176192,7.93518014 77.3565256,8.95065757 78.6442111,8.95065757 C79.8962134,8.95065757 80.817717,7.93518014 80.817717,6.67459142 C80.817717,5.39648682 79.8962134,4.3639515 78.6268087,4.3639515 C77.3565256,4.3639515 76.4176192,5.39648682 76.4176192,6.65707602 Z M78.1745532,8.16233398 L77.5135274,8.16233398 L77.5135274,5.29143884 C77.7739913,5.23891534 78.1397628,5.20388453 78.6094356,5.20388453 C79.1486743,5.20388453 79.3917651,5.29143884 79.6004907,5.41442978 C79.7570676,5.53654337 79.8788403,5.76415424 79.8788403,6.04428185 C79.8788403,6.35944026 79.6352955,6.60455203 79.2873948,6.70959228 L79.2873948,6.74461584 C79.5657152,6.84967106 79.7222628,7.05930949 79.8092456,7.4449421 C79.8962134,7.88264891 79.9484057,8.05728649 80.0179712,8.16233398 L79.3047824,8.16233398 C79.217815,8.05728649 79.1660619,7.79510909 79.0786548,7.46245025 C79.026462,7.14730634 78.8524975,7.0067855 78.4872094,7.0067855 L78.1745532,7.0067855 L78.1745532,8.16233398 Z M78.1914866,6.53451264 L78.5045969,6.53451264 C78.8698999,6.53451264 79.1660619,6.41196424 79.1660619,6.11432124 C79.1660619,5.85170179 78.9742697,5.67661442 78.5567892,5.67661442 C78.3828391,5.67661442 78.2610665,5.69412258 78.1914866,5.71162301 L78.1914866,6.53451264 Z" id="Path-2"></path>
        </g>
    </g>
</svg>