<svg xmlns="http://www.w3.org/2000/svg" width="57.621" height="76.828" viewBox="0 0 57.621 76.828"><g transform="translate(-64)"><g transform="translate(64)"><path d="M121.152,16.475,105.146.469A1.6,1.6,0,0,0,104.015,0H70.4A6.409,6.409,0,0,0,64,6.4V70.426a6.409,6.409,0,0,0,6.4,6.4h44.817a6.409,6.409,0,0,0,6.4-6.4V17.606A1.6,1.6,0,0,0,121.152,16.475ZM105.615,5.465l10.541,10.541h-7.34a3.205,3.205,0,0,1-3.2-3.2Zm12.8,64.961a3.205,3.205,0,0,1-3.2,3.2H70.4a3.205,3.205,0,0,1-3.2-3.2V6.4a3.205,3.205,0,0,1,3.2-3.2h32.012v9.6a6.409,6.409,0,0,0,6.4,6.4h9.6Z" transform="translate(-64)" fill="#6ac2f7"/><path d="M155.368,192.044a46.391,46.391,0,0,1-3.828-3.3c-1.219-1.219-2.306-2.4-3.25-3.526,1.472-4.55,2.118-6.9,2.118-8.147,0-5.313-1.919-6.4-4.8-6.4-2.19,0-4.8,1.138-4.8,6.556,0,2.388,1.308,5.288,3.9,8.658-.635,1.937-1.38,4.17-2.218,6.688-.4,1.208-.841,2.327-1.3,3.362-.377.167-.742.338-1.1.514-1.272.636-2.481,1.208-3.6,1.74-5.111,2.42-8.488,4.02-8.488,7.181,0,2.295,2.493,3.715,4.8,3.715,2.976,0,7.47-3.975,10.752-10.671a63.681,63.681,0,0,1,10.987-2.964c2.679,2.06,5.638,4.031,7.071,4.031,3.969,0,4.8-2.295,4.8-4.219,0-3.784-4.324-3.784-6.4-3.784A37.914,37.914,0,0,0,155.368,192.044ZM132.8,205.879a2.529,2.529,0,0,1-1.6-.514c0-1.135,3.384-2.738,6.657-4.289l.633-.3C136.087,204.263,133.71,205.879,132.8,205.879Zm11.2-28.657c0-3.354,1.041-3.354,1.6-3.354,1.132,0,1.6,0,1.6,3.2a25.663,25.663,0,0,1-1.274,5A9.835,9.835,0,0,1,144.006,177.222Zm1.227,17.2q.15-.417.291-.844c.594-1.782,1.129-3.383,1.605-4.824q1,1.1,2.148,2.248c.3.3,1.044.975,2.035,1.821C149.339,193.256,147.24,193.789,145.233,194.425Zm17.98.833c0,.719,0,1.018-1.485,1.027a11.794,11.794,0,0,1-2.689-1.535c.452-.05.785-.075.972-.075C162.377,194.675,163.047,194.906,163.213,195.258Z" transform="translate(-118.396 -145.057)" fill="#6ac2f7"/></g></g></svg>