<svg xmlns="http://www.w3.org/2000/svg" width="37" height="37" viewBox="0 0 37 37"><g transform="translate(-614.79 -24.42)" opacity="0.6"><path d="M633.29,61.42a18.5,18.5,0,1,1,18.5-18.5A18.5,18.5,0,0,1,633.29,61.42Zm0-35.724A17.224,17.224,0,1,0,650.514,42.92h0A17.244,17.244,0,0,0,633.29,25.7Z" fill="#053e81"/><path d="M639.3,38.848a1.464,1.464,0,0,0-.607,2.8V45.65a3.5,3.5,0,0,1-6.967.436,4.926,4.926,0,0,0,4.519-4.759V38.4a2.281,2.281,0,0,0-2.29-2.289h-.164c-.04-.269-.153-.659-.632-.659a.659.659,0,0,0-.637.726v1.167a.661.661,0,0,0,.637.726c.476,0,.6-.4.635-.692h.161A1.057,1.057,0,0,1,635,38.431v2.957a4,4,0,0,1-7.939,0V38.464a1.056,1.056,0,0,1,1.049-1.048h.228c.04.268.159.658.631.658.5,0,.6-.4.638-.7V36.181a.652.652,0,0,0-.638-.726c-.481,0-.612.409-.634.692h-.225a2.276,2.276,0,0,0-2.29,2.287v2.924a4.933,4.933,0,0,0,4.631,4.738,4.749,4.749,0,0,0,4.714,4.289,4.852,4.852,0,0,0,4.8-4.768V41.6a1.479,1.479,0,0,0,.795-1.3A1.457,1.457,0,0,0,639.3,38.848Zm0,1.653a.223.223,0,1,1,0-.445.238.238,0,0,1,.222.222A.218.218,0,0,1,639.3,40.5Z" fill="#053e81"/></g></svg>