<svg xmlns="http://www.w3.org/2000/svg" width="49.894" height="49.893" viewBox="0 0 49.894 49.893"><g transform="translate(22.023 40.148)"><path d="M226.972,412a.974.974,0,1,0,.974.974A.975.975,0,0,0,226.972,412Z" transform="translate(-225.998 -411.998)" fill="#053e81"/></g><g transform="translate(0 4.482)"><path d="M46,63.54H40.331L45.776,57.1a2.924,2.924,0,0,0,3.261-4.736l-5.513-5.514a2.923,2.923,0,0,0-4.734,3.261L22.924,63.54H3.9a3.893,3.893,0,0,0-1.363,7.541,16.554,16.554,0,0,0,11.692,15.7v1.7a2.927,2.927,0,0,0,2.923,2.923H32.742a2.927,2.927,0,0,0,2.923-2.923v-1.7a16.554,16.554,0,0,0,11.692-15.7A3.893,3.893,0,0,0,46,63.54Zm-5.228-15.3a.973.973,0,0,1,1.379,0l5.512,5.513a.974.974,0,0,1-1.377,1.379h0l-5.513-5.513h0A.975.975,0,0,1,40.767,48.235Zm-.743,3.389,4.245,4.245L37.778,63.54H25.941ZM33.717,88.487a.976.976,0,0,1-.974.974H17.151a.976.976,0,0,1-.974-.974V87.253a16.692,16.692,0,0,0,2.923.259H30.793a16.683,16.683,0,0,0,2.923-.259Zm.732-3.384a14.683,14.683,0,0,1-3.655.46H19.1A14.6,14.6,0,0,1,4.488,71.326H45.405A14.617,14.617,0,0,1,34.449,85.1Zm12.2-15.838-.024.009a1.722,1.722,0,0,1-.632.113H3.9a1.949,1.949,0,1,1,0-3.9H46a1.951,1.951,0,0,1,1.949,1.949A1.928,1.928,0,0,1,46.652,69.265Z" transform="translate(0 -45.999)" fill="#053e81"/></g><g transform="translate(7.1 32.352)"><path d="M84.857,339.794a10.744,10.744,0,0,1-10.107-7.147.974.974,0,0,0-1.837.651,12.7,12.7,0,0,0,11.944,8.445.974.974,0,0,0,0-1.949Z" transform="translate(-72.857 -331.998)" fill="#053e81"/></g><g transform="translate(6.431 0)"><g transform="translate(0 0)"><path d="M83.254,15.879l-1.664-1.663V10.721A10.731,10.731,0,0,0,70.871,0h-3.9A.975.975,0,0,0,66,.976v3.9A10.731,10.731,0,0,0,76.718,15.594h3.494l1.664,1.664a.975.975,0,0,0,1.378-1.378Zm-3.613-3.613L71.56,4.185a.975.975,0,0,0-1.378,1.378l8.081,8.081H76.718a8.78,8.78,0,0,1-8.77-8.77V1.951h2.923a8.78,8.78,0,0,1,8.77,8.77Z" transform="translate(-65.999 -0.002)" fill="#053e81"/></g></g><g transform="translate(23.972 0)"><g transform="translate(0 0)"><path d="M248.92,0a2.923,2.923,0,1,0,2.923,2.923A2.927,2.927,0,0,0,248.92,0Zm0,3.9a.974.974,0,1,1,.974-.974A.976.976,0,0,1,248.92,3.9Z" transform="translate(-245.997 -0.002)" fill="#053e81"/></g></g></svg>