<svg xmlns="http://www.w3.org/2000/svg" width="37" height="37" viewBox="0 0 37 37"><g transform="translate(-445.449 -24.42)" opacity="0.6"><path d="M463.949,61.42a18.5,18.5,0,1,1,18.5-18.5A18.5,18.5,0,0,1,463.949,61.42Zm0-35.724A17.224,17.224,0,1,0,481.173,42.92h0A17.244,17.244,0,0,0,463.949,25.7Z" fill="#053e81"/><path d="M463.691,49.54a.641.641,0,0,1-.337-.355l-4.58-12.019a.615.615,0,0,1-.041-.108.639.639,0,0,1,1.23-.349l4.579,12.02a.639.639,0,0,1-.856.812Z" fill="#053e81"/><path d="M464.212,49.541a.639.639,0,0,1-.856-.812l4.58-12.02a.639.639,0,0,1,1.229.349.615.615,0,0,1-.041.108l-4.58,12.019a.641.641,0,0,1-.337.355Z" fill="#053e81"/></g></svg>