<svg xmlns="http://www.w3.org/2000/svg" width="37" height="37" viewBox="0 0 37 37"><g transform="translate(-360.779 -24.42)" opacity="0.6"><path d="M379.279,61.42a18.5,18.5,0,1,1,18.5-18.5A18.5,18.5,0,0,1,379.279,61.42Zm0-35.724A17.224,17.224,0,1,0,396.5,42.92h0A17.244,17.244,0,0,0,379.279,25.7Z" fill="#053e81"/><path d="M374.358,34.515a2.4,2.4,0,1,0,2.4,2.4A2.4,2.4,0,0,0,374.358,34.515Zm0,4.12a1.716,1.716,0,1,1,1.716-1.717A1.717,1.717,0,0,1,374.358,38.635Z" fill="#053e81"/><path d="M374.014,40.351v.687a.343.343,0,0,0,.687,0v-.687a.343.343,0,0,0-.687,0Z" fill="#053e81"/><path d="M374.7,33.485V32.8a.343.343,0,0,0-.687,0v.687a.343.343,0,0,0,.687,0Z" fill="#053e81"/><path d="M370.238,37.262h.686a.344.344,0,1,0,0-.687h-.686a.344.344,0,1,0,0,.687Z" fill="#053e81"/><path d="M378.821,36.918a.344.344,0,0,0-.344-.343h-.686a.344.344,0,1,0,0,.687h.686A.344.344,0,0,0,378.821,36.918Z" fill="#053e81"/><path d="M371.443,40.176a.341.341,0,0,0,.244-.1l.487-.484a.344.344,0,0,0-.487-.487l-.484.487a.343.343,0,0,0,.24.587Z" fill="#053e81"/><path d="M377.029,33.763l-.488.484a.345.345,0,1,0,.488.488l.484-.488a.343.343,0,0,0-.484-.484Z" fill="#053e81"/><path d="M371.687,34.735a.345.345,0,0,0,.487-.488l-.487-.484a.343.343,0,0,0-.484.484Z" fill="#053e81"/><path d="M377.029,40.073a.343.343,0,0,0,.484-.484l-.484-.487a.345.345,0,1,0-.488.487Z" fill="#053e81"/><path d="M375.539,39.771a.338.338,0,0,0-.186.187.342.342,0,0,0,0,.263l.265.635a.352.352,0,0,0,.644,0,.343.343,0,0,0,0-.265L376,39.957a.344.344,0,0,0-.46-.186Z" fill="#053e81"/><path d="M372.727,33.876a.343.343,0,1,0,.635-.26l-.264-.636a.344.344,0,0,0-.636.265Z" fill="#053e81"/><path d="M371.5,38.1a.344.344,0,0,0-.446-.185l-.635.264a.343.343,0,0,0,.13.659c.1,0,.086,0,.766-.288a.343.343,0,0,0,.185-.45Z" fill="#053e81"/><path d="M377.214,35.737a.343.343,0,0,0,.446.186l.635-.265a.344.344,0,1,0-.264-.635l-.632.265a.343.343,0,0,0-.186.186A.347.347,0,0,0,377.214,35.737Z" fill="#053e81"/><path d="M372.727,39.96l-.265.632a.339.339,0,1,0,.625.261l.265-.635a.343.343,0,0,0-.364-.471.341.341,0,0,0-.271.21Z" fill="#053e81"/><path d="M375.673,34.089a.34.34,0,0,0,.315-.213l.265-.631a.339.339,0,1,0-.625-.261l-.275.632a.343.343,0,0,0,.32.473Z" fill="#053e81"/><path d="M370.42,35.658c.686.278.686.289.765.289a.343.343,0,0,0,.131-.659l-.632-.265a.344.344,0,1,0-.264.635Z" fill="#053e81"/><path d="M378.165,38.837a.343.343,0,0,0,.13-.659l-.635-.264a.343.343,0,0,0-.261.635c.67.278.673.288.766.288Z" fill="#053e81"/><path d="M376.206,44.829a1.933,1.933,0,0,1,0,1.689,3.709,3.709,0,0,0,1.03,4.6,3.857,3.857,0,0,0,3.433.429,1.636,1.636,0,0,1,.292-.079v2.469h.68V51.472a1.934,1.934,0,0,1,.3.082,3.85,3.85,0,0,0,3.375-.408,3.7,3.7,0,0,0,1.435-3.53,2.059,2.059,0,0,1,.323-1.493,4.3,4.3,0,0,0-1.343-6.108h0a2.061,2.061,0,0,1-.971-1.438,4.422,4.422,0,0,0-.666-2.266,3.434,3.434,0,0,0-3.632-1.236,3.232,3.232,0,0,0-2.253,3.111,1.9,1.9,0,0,1-.769,1.459A4.292,4.292,0,0,0,376.206,44.829Zm1.637-4.645a2.588,2.588,0,0,0,1.03-1.995,2.547,2.547,0,0,1,1.755-2.455,2.747,2.747,0,0,1,2.891.986,3.936,3.936,0,0,1,.539,1.963,2.746,2.746,0,0,0,1.3,1.923,3.611,3.611,0,0,1,1.15,5.129h0a2.752,2.752,0,0,0-.436,1.988,3.276,3.276,0,0,1-.5,2.225,1.84,1.84,0,0,1-.611.614,3.176,3.176,0,0,1-2.781.343,2.466,2.466,0,0,0-.535-.127V46.765l3.162-3.158a.345.345,0,0,0-.488-.488L381.641,45.8V41.959l1.617-1.614a.345.345,0,0,0-.488-.488l-1.129,1.133V38.385a.343.343,0,1,0-.687,0V43.05l-1.473-1.476a.345.345,0,0,0-.487.488l1.96,1.956V48.2l-2.16-2.163a.345.345,0,0,0-.487.488l2.647,2.643v1.607a2.85,2.85,0,0,0-.532.13,3.167,3.167,0,0,1-2.819-.367,1.841,1.841,0,0,1-.618-.638,3.149,3.149,0,0,1-.171-3.066,2.644,2.644,0,0,0,0-2.3A3.6,3.6,0,0,1,377.843,40.184Z" fill="#053e81"/><rect width="11.292" height="0.874" rx="0.437" transform="translate(373.633 53.941)" fill="#053e81"/></g></svg>